<?xml version="1.0" standalone="no"?>
<!DOCTYPE svg PUBLIC "-//W3C//DTD SVG 1.1//EN" "http://www.w3.org/Graphics/SVG/1.1/DTD/svg11.dtd" >
<svg>
<metadata>
Created by FontForge 20090914 at Wed Jul 19 15:09:40 2017
 By www-data
&#194;&#169; phitradesign fonts 2016 ALL RIGHTS RESERVED, FREE FOR PERSONAL USE ONLY
</metadata>
<defs>
<font id="GeorginaDemo-Regular" horiz-adv-x="600" >
  <font-face 
    font-family="Georgina Demo"
    font-weight="400"
    font-stretch="normal"
    units-per-em="1000"
    panose-1="0 0 5 0 0 0 0 0 0 0"
    ascent="800"
    descent="-200"
    x-height="700"
    cap-height="700"
    bbox="-23.001 -228 1370 840"
    underline-thickness="50"
    underline-position="-50"
    unicode-range="U+0020-U+2265"
  />
<missing-glyph horiz-adv-x="500" 
d="M410 -200h-317v1000h317v-1000zM167 118v-113h166v113h-166zM300 38h-100v47h100v-47zM233 291v-56h34v23h33v-47h-100v80h-33v-113h166v113h-100zM300 413v-66h-133v-34h166v100h-33zM167 473v-33h66v-37h-66v-33h100v70h66v33h-166zM233 534h-33v36h33v-36zM167 604
v-104h166v34h-66v70h-100zM168 733v-33h65v-37h-66v-33h166v33h-66v37h66v33h-165zM167 -18v-33h70l-70 -47v-33h166v33h-102l70 47h32v33h-166z" />
    <glyph glyph-name=".notdef" horiz-adv-x="500" 
d="M410 -200h-317v1000h317v-1000zM167 118v-113h166v113h-166zM300 38h-100v47h100v-47zM233 291v-56h34v23h33v-47h-100v80h-33v-113h166v113h-100zM300 413v-66h-133v-34h166v100h-33zM167 473v-33h66v-37h-66v-33h100v70h66v33h-166zM233 534h-33v36h33v-36zM167 604
v-104h166v34h-66v70h-100zM168 733v-33h65v-37h-66v-33h166v33h-66v37h66v33h-165zM167 -18v-33h70l-70 -47v-33h166v33h-102l70 47h32v33h-166z" />
    <glyph glyph-name="space" unicode=" " horiz-adv-x="350" 
 />
    <glyph glyph-name="exclam" unicode="!" horiz-adv-x="334" 
d="M225 7.5c4.66699 5 7 11.167 7 18.5v81c0 7.33301 -2.33301 13.333 -7 18s-10.667 7 -18 7h-81c-7.33301 0 -13.5 -2.33301 -18.5 -7s-7.5 -10.667 -7.5 -18v-81c0 -7.33301 2.5 -13.5 7.5 -18.5s11.167 -7.5 18.5 -7.5h81c7.33301 0 13.333 2.5 18 7.5zM125 700h86
c15.333 0 23 -7.66699 23 -23l-10 -470c0 -6.66699 -2 -12.167 -6 -16.5s-9.66699 -6.5 -17 -6.5l-69 1c-6.66699 0 -12.167 2.16699 -16.5 6.5s-6.5 9.83301 -6.5 16.5l-7 469c0 15.333 7.66699 23 23 23z" />
    <glyph glyph-name="quotedbl" unicode="&#x22;" horiz-adv-x="394" 
d="M93 700h48c15.333 0 23 -7.66699 23 -23v-185c0 -15.333 -7.66699 -23 -23 -23h-48c-15.333 0 -23 7.66699 -23 23v185c0 15.333 7.66699 23 23 23zM253 703h48c15.333 0 23 -7.66699 23 -23v-185c0 -15.333 -7.66699 -23 -23 -23h-48c-15.333 0 -23 7.66699 -23 23v185
c0 15.333 7.66699 23 23 23z" />
    <glyph glyph-name="numbersign" unicode="#" horiz-adv-x="802" 
d="M742 509l0.00195312 -52.999c0 -12.667 -2.83301 -21.334 -8.5 -26.001s-13.5 -7 -23.5 -7h-98l-46 -130h95c10 0 17.833 -2.33301 23.5 -7s8.5 -13.334 8.5 -26.001v-53c0 -14 -2.66699 -23 -8 -27s-13.333 -6 -24 -6h-136l-52 -145
c-2.66699 -8 -7.83398 -14.833 -15.501 -20.5s-15.167 -8.5 -22.5 -8.5h-57c-9.33301 0 -17 3.5 -23 10.5s-9 14.5 -9 22.5c0 2 0.666992 5 2 9l46 132h-117l-51 -145c-2.66699 -8 -7.83398 -14.833 -15.501 -20.5s-15.167 -8.5 -22.5 -8.5h-59
c-9.33301 0 -16.666 3.33301 -21.999 10s-8 14.334 -8 23.001c0 2 0.666992 5 2 9l46 132h-54c-10.667 0 -18.834 2.16699 -24.501 6.5s-8.5 13.166 -8.5 26.499v53c0 12.667 3 21.334 9 26.001s14 7 24 7h96l45 130h-92c-10.667 0 -18.834 2.16699 -24.501 6.5
s-8.5 13.166 -8.5 26.499v53c0 12.667 2.83301 21.334 8.5 26.001s13.834 7 24.501 7h134l45 128c3.33301 7.33301 8.83301 14 16.5 20s15.167 9 22.5 9h74c6 0 10.833 -1.83301 14.5 -5.5s5.5 -8.16699 5.5 -13.5c0 -2.66699 -0.666992 -6 -2 -10l-45 -128h116l45 128
c3.33301 7.33301 8.83301 14 16.5 20s15.167 9 22.5 9h74c6 0 10.833 -1.83301 14.5 -5.5s5.5 -8.16699 5.5 -13.5c0 -2.66699 -0.666992 -6 -2 -10l-45 -128h56c21.333 0 32 -11 32 -33zM482.002 423.001h-117l-46 -130h117z" />
    <glyph glyph-name="dollar" unicode="$" horiz-adv-x="647" 
d="M572 99c-16.667 -29.333 -41.0049 -54.3271 -73.0049 -74.9941c-20 -12 -44.667 -22 -74 -30s-63.666 -11.667 -102.999 -11h-12c-33.333 2 -66 7.66699 -98 17s-60.333 21.666 -85 36.999c-32.667 18 -56.334 39.333 -71.001 64c-4 5.33301 -6 10.666 -6 15.999
s1.33301 10.166 4 14.499s6.33398 7.83301 11.001 10.5c4 2.66699 11 7.66699 21 15s18.667 13 26 17c6.66699 4 13.334 5.66699 20.001 5c5.33301 -2.66699 10.333 -6.66699 15 -12c8.66699 -14.667 22 -27.334 40 -38.001c20.667 -12.667 44.334 -22.334 71.001 -29.001
s53.334 -10 80.001 -10c43.333 0 78.333 8.33301 105 25c15.333 9.33301 26.333 20.333 33 33s10 28.667 10 48c0 15.333 -3.33301 27.833 -10 37.5s-19.5 18.667 -38.5 27s-46.833 16.833 -83.5 25.5c-55.333 12.667 -103.333 27 -144 43
c-44.667 18 -78.167 43.333 -100.5 76s-33.5 68 -33.5 106c0 19.333 2.33301 36.333 7 51c12 42.667 37.667 78.834 77 108.501s88.333 44.5 147 44.5c7.33301 0 18.333 -0.666992 33 -2c60 -6 107.667 -21.167 143 -45.5s61.333 -52.833 78 -85.5
c3.33301 -6 6.66602 -13.333 9.99902 -22c1.33301 -2 2 -5.33301 2 -10s-1.33301 -9.16699 -4 -13.5s-6 -7.5 -10 -9.5l-52 -26c-5.33301 -3.33301 -13 -4.33301 -23 -3c-6.66699 4 -11 9 -13 15c-1.33301 4 -4.33301 10.667 -9 20c-14 24 -34 42.333 -60 55
s-57.333 19 -94 19c-29.333 0 -55.666 -6.33301 -78.999 -19c-20 -12.667 -32.667 -30 -38 -52c-2 -6.66699 -3 -14.334 -3 -23.001c0 -17.333 5.33301 -33.333 16 -48s27 -26.334 49 -35.001c30.667 -11.333 74.334 -24.333 131.001 -39c32 -7.33301 59 -14.833 81 -22.5
s41.333 -16.834 58 -27.501c49.333 -30 74 -78.333 74 -145c0 -35.333 -8.33301 -67.666 -25 -96.999zM259.995 793.006c4 4.66699 9 7 15 7h89c6 0 11 -2.33301 15 -7s6 -10.667 6 -18v-89c0 -7.33301 -2 -13.333 -6 -18s-9 -7 -15 -7h-89c-6 0 -11 2.33301 -15 7
s-6 10.667 -6 18v89c0 7.33301 2 13.333 6 18zM270.995 29.0059c4 4.66699 9 7 15 7h89c6 0 11 -2.33301 15 -7s6 -10.667 6 -18v-89c0 -7.33301 -2 -13.333 -6 -18s-9 -7 -15 -7h-89c-6 0 -11 2.33301 -15 7s-6 10.667 -6 18v89c0 7.33301 2 13.333 6 18z" />
    <glyph glyph-name="percent" unicode="%" horiz-adv-x="1040" 
d="M290 5.5c-3.33301 3 -5.00293 6.83301 -5.00293 11.5c0 3.33301 1 7 3 11l327 650c3.33301 6 8.33301 11.333 15 16s13.334 7 20.001 7h82c11.333 0 17 -5 17 -15c0 -4 -1 -8 -3 -12l-327 -650c-3.33301 -6 -8.16602 -11.333 -14.499 -16s-12.833 -7 -19.5 -7h-82
c-5.33301 0 -9.66602 1.5 -12.999 4.5zM303.497 475c16.333 16 24.5 35.333 24.5 58s-8.16699 42 -24.5 58s-35.833 24 -58.5 24s-42 -8 -58 -24s-24 -35.333 -24 -58s8 -42 24 -58s35.333 -24 58 -24s42.167 8 58.5 24zM162.997 383.5c-26 15 -46.5 35.5 -61.5 61.5
s-22.5 54.667 -22.5 86c0 30.667 7.5 58.834 22.5 84.501s35.5 46.167 61.5 61.5s54.667 23 86 23c30.667 0 58.834 -7.66699 84.501 -23s46.167 -35.833 61.5 -61.5s23 -53.834 23 -84.501c0 -31.333 -7.66699 -60 -23 -86s-35.833 -46.5 -61.5 -61.5
s-53.834 -22.5 -84.501 -22.5c-31.333 0 -60 7.5 -86 22.5zM844.497 115c16.333 16 24.5 35.333 24.5 58s-8.16699 42 -24.5 58s-35.833 24 -58.5 24s-42 -8 -58 -24s-24 -35.333 -24 -58s8 -42 24 -58s35.333 -24 58 -24s42.167 8 58.5 24zM703.997 23.5
c-26 15 -46.5 35.5 -61.5 61.5s-22.5 54.667 -22.5 86c0 30.667 7.5 58.834 22.5 84.501s35.5 46.167 61.5 61.5s54.667 23 86 23c30.667 0 58.834 -7.66699 84.501 -23s46.167 -35.833 61.5 -61.5s23 -53.834 23 -84.501c0 -31.333 -7.66699 -60 -23 -86
s-35.833 -46.5 -61.5 -61.5s-53.834 -22.5 -84.501 -22.5c-31.333 0 -60 7.5 -86 22.5z" />
    <glyph glyph-name="quotesingle" unicode="'" horiz-adv-x="154" 
d="M53 700h48c15.333 0 23 -7.66699 23 -23v-185c0 -15.333 -7.66699 -23 -23 -23h-48c-15.333 0 -23 7.66699 -23 23v185c0 15.333 7.66699 23 23 23z" />
    <glyph glyph-name="parenleft" unicode="(" horiz-adv-x="383" 
d="M316.5 -129.5c4.33301 5 6.49902 10.5 6.49902 16.5c0 1.33301 -0.666992 4 -2 8c-70 152 -105 303.333 -105 454c0 149.333 34.667 302 104 458l2 8c0 6.66699 -2.16699 12.5 -6.5 17.5s-9.16602 7.5 -14.499 7.5h-75c-8.66699 0 -15.334 -4.66699 -20.001 -14
c-70.667 -152.667 -106 -310.667 -106 -474c0 -164 35.333 -322.333 106 -475c4.66699 -9.33301 11.334 -14 20.001 -14h75c6 0 11.167 2.5 15.5 7.5z" />
    <glyph glyph-name="parenright" unicode=")" horiz-adv-x="383" 
d="M157 -137c8.66699 0 15.333 4.66699 20 14c70.667 150 106 308.333 106 475c0 166 -35.333 324 -106 474c-4.66699 9.33301 -11.334 14 -20.001 14h-75c-5.33301 0 -10.166 -2.5 -14.499 -7.5s-6.5 -10.833 -6.5 -17.5l2 -8c69.333 -156 104 -308.667 104 -458
c0 -150.667 -35 -302 -105 -454c-1.33301 -4 -2 -6.66699 -2 -8c0 -6 2.16699 -11.5 6.5 -16.5s9.5 -7.5 15.5 -7.5h75z" />
    <glyph glyph-name="asterisk" unicode="*" horiz-adv-x="359" 
d="M319 538c0 -4.66699 -0.666992 -7.99902 -2 -9.99902l-25 -46c-4.66699 -6.66699 -9.66699 -10 -15 -10c-3.33301 0 -7.33301 1.66699 -12 5l-69 58l2 -1c1.33301 0 2.33301 0.666992 3 2s1 2.66602 1 3.99902l18 -84v1l1 -5c0 -4.66699 -1.66699 -8.66699 -5 -12
s-7.33301 -5 -12 -5h-55c-4.66699 0 -8.66699 2.16699 -12 6.5s-4.66602 8.83301 -3.99902 13.5l14 75v2c1.33301 6 12 12.333 32 19l-79 -79c-3.33301 -2 -6.66602 -3 -9.99902 -3c-7.33301 0 -12.333 2.66699 -15 8l-30 47v-1c-2 3.33301 -3 6.66602 -3 9.99902
c0 8 3.33301 13.333 10 16l78 30c0 -6.66699 -1 -10 -3 -10l-78 24c-6 3.33301 -9 8.66602 -9 15.999c0 4 0.666992 7 2 9l27 49c3.33301 6 8.66602 9 15.999 9c4.66699 0 8.66699 -1.66699 12 -5v0l58 -49c1.33301 -2.66699 2 -5.66699 2 -9c0 -8 -2 -17.333 -6 -28
l-20 111c0 4 1.66699 7.5 5 10.5s7.33301 4.5 12 4.5h56c5.33301 0 9.66602 -2.33301 12.999 -7s4.33301 -9.66699 3 -15v1l-18 -86v-1v2c0 2 -0.833008 3.5 -2.5 4.5s-3.16699 0.833008 -4.5 -0.5l64 64v0c4.66699 3.33301 9 5 13 5c6 0 10.667 -2.66699 14 -8l29 -46v1
c2 -2.66699 3 -5.66699 3 -9s-1 -6.5 -3 -9.5s-4.33301 -5.16699 -7 -6.5l-76 -31l-3 -1c3.33301 0 5.33301 1.33301 6 4s-0.333008 4.33398 -3 5.00098l79 -26c5.33301 -3.33301 8 -7.66602 8 -12.999z" />
    <glyph glyph-name="comma" unicode="," horiz-adv-x="211" 
d="M171 26v-4c-2.66699 -28 -10.667 -50 -24 -66s-28 -28 -44 -36c-5.33301 -1.33301 -9.33301 -2 -12 -2c-5.33301 0 -10 1 -14 3l-8 5c-2.66699 0.666992 -4 3 -4 7s1.66699 6.66699 5 8c27.333 12.667 41 32.667 41 60h-45c-8 0 -14.333 2.5 -19 7.5s-7 10.833 -7 17.5
v81c0 7.33301 2.33301 13.333 7 18s11 7 19 7h79c7.33301 0 13.5 -2.33301 18.5 -7s7.5 -10.667 7.5 -18v-81z" />
    <glyph glyph-name="hyphen" unicode="-" horiz-adv-x="367" 
d="M83 408h201c15.333 0 23 -7.66699 23 -23v-64c0 -15.333 -7.66699 -23 -23 -23h-201c-15.333 0 -23 7.66699 -23 23v64c0 15.333 7.66699 23 23 23z" />
    <glyph glyph-name="period" unicode="." horiz-adv-x="232" 
d="M175 7.5c4.66699 5 7 11.167 7 18.5v81c0 7.33301 -2.33301 13.333 -7 18s-10.667 7 -18 7h-81c-7.33301 0 -13.5 -2.33301 -18.5 -7s-7.5 -10.667 -7.5 -18v-81c0 -7.33301 2.5 -13.5 7.5 -18.5s11.167 -7.5 18.5 -7.5h81c7.33301 0 13.333 2.5 18 7.5z" />
    <glyph glyph-name="slash" unicode="/" horiz-adv-x="480" 
d="M176.5 8.5c7.66699 5.66699 12.833 12.499 15.5 20.499l226 641c1.33301 4 2 7.33301 2 10c0 5.33301 -1.83301 9.83301 -5.5 13.5s-8.5 5.5 -14.5 5.5h-74c-7.33301 0 -14.833 -3 -22.5 -9s-13.167 -12.667 -16.5 -20l-225 -641
c-1.33301 -5.33301 -2 -8.66602 -2 -9.99902c0 -5.33301 1.83301 -9.83301 5.5 -13.5s8.5 -5.5 14.5 -5.5h74c7.33301 -0 14.833 2.83301 22.5 8.5z" />
    <glyph glyph-name="zero" unicode="0" 
 />
    <glyph glyph-name="one" unicode="1" 
 />
    <glyph glyph-name="two" unicode="2" 
 />
    <glyph glyph-name="three" unicode="3" 
 />
    <glyph glyph-name="four" unicode="4" 
 />
    <glyph glyph-name="five" unicode="5" 
 />
    <glyph glyph-name="six" unicode="6" 
 />
    <glyph glyph-name="seven" unicode="7" 
 />
    <glyph glyph-name="eight" unicode="8" 
 />
    <glyph glyph-name="nine" unicode="9" 
 />
    <glyph glyph-name="colon" unicode=":" horiz-adv-x="212" 
d="M165 7.5c4.66699 5 7 11.167 7 18.5v81c0 7.33301 -2.33301 13.333 -7 18s-10.667 7 -18 7h-81c-7.33301 0 -13.5 -2.33301 -18.5 -7s-7.5 -10.667 -7.5 -18v-81c0 -7.33301 2.5 -13.5 7.5 -18.5s11.167 -7.5 18.5 -7.5h81c7.33301 0 13.333 2.5 18 7.5zM165 349.5
c4.66699 5 7 11.167 7 18.5v81c0 7.33301 -2.33301 13.333 -7 18s-10.667 7 -18 7h-81c-7.33301 0 -13.5 -2.33301 -18.5 -7s-7.5 -10.667 -7.5 -18v-81c0 -7.33301 2.5 -13.5 7.5 -18.5s11.167 -7.5 18.5 -7.5h81c7.33301 0 13.333 2.5 18 7.5z" />
    <glyph glyph-name="semicolon" unicode=";" horiz-adv-x="212" 
d="M172 26v-4c-2.66699 -28 -10.667 -50 -24 -66s-28 -28 -44 -36c-5.33301 -1.33301 -9.33301 -2 -12 -2c-5.33301 0 -10 1 -14 3l-8 5c-2.66699 0.666992 -4 3 -4 7s1.66699 6.66699 5 8c27.333 12.667 41 32.667 41 60h-45c-8 0 -14.333 2.5 -19 7.5s-7 10.833 -7 17.5
v81c0 7.33301 2.33301 13.333 7 18s11 7 19 7h79c7.33301 0 13.5 -2.33301 18.5 -7s7.5 -10.667 7.5 -18v-81zM165 348.5c4.66699 5 7 11.167 7 18.5v81c0 7.33301 -2.33301 13.333 -7 18s-10.667 7 -18 7h-81c-7.33301 0 -13.5 -2.33301 -18.5 -7s-7.5 -10.667 -7.5 -18
v-81c0 -7.33301 2.5 -13.5 7.5 -18.5s11.167 -7.5 18.5 -7.5h81c7.33301 0 13.333 2.5 18 7.5z" />
    <glyph glyph-name="question" unicode="?" horiz-adv-x="676" 
d="M395 7.5c4.66699 5 7 10.833 7 17.5v78c0 6.66699 -2.5 12.334 -7.5 17.001s-10.833 7 -17.5 7h-81c-7.33301 0 -13.5 -2.33301 -18.5 -7s-7.5 -10.334 -7.5 -17.001v-78c0 -7.33301 2.5 -13.333 7.5 -18s11.167 -7 18.5 -7h81c7.33301 0 13.333 2.5 18 7.5zM387.5 171
c3.66699 4 5.49609 8.66797 5.49609 14.001c0 22 2.83301 39.833 8.5 53.5s12.834 24.667 21.501 33s22.334 19.833 41.001 34.5c18.667 13.333 34.667 26.166 48 38.499s25.333 27.166 36 44.499c18.667 27.333 28 58.666 28 93.999c0 38.667 -11 76 -33 112
c-23.333 38.667 -55 68.5 -95 89.5s-83.667 30.5 -131 28.5c-86 -4 -152 -40.333 -198 -109c-18.667 -25.333 -31.334 -51.666 -38.001 -78.999c-0.666992 -1.33301 -1 -3 -1 -5c0 -4.66699 1.33301 -8.83398 4 -12.501s6.33398 -5.83398 11.001 -6.50098l77 -13h5
c5.33301 0 10 1.16699 14 3.5s6.66699 5.83301 8 10.5c5.33301 15.333 12.666 29.333 21.999 42c24.667 34.667 58.334 52 101.001 52c30.667 1.33301 55.667 -4.5 75 -17.5s33.333 -26.833 42 -41.5c11.333 -18.667 17 -36.667 17 -54c0 -12.667 -3.33301 -24 -10 -34
c-4.66699 -7.33301 -10.167 -14 -16.5 -20s-13.333 -11.833 -21 -17.5s-13.5 -10.167 -17.5 -13.5c-23.333 -17.333 -43.166 -34.166 -59.499 -50.499s-30.333 -38.333 -42 -66s-17.5 -61.5 -17.5 -101.5c0.666992 -5.33301 2.83398 -9.66602 6.50098 -12.999
s8.16699 -4.66602 13.5 -3.99902l82 1c5.33301 0.666992 9.83301 3 13.5 7z" />
    <glyph glyph-name="A" unicode="A" horiz-adv-x="751" 
d="M271 663c4.66699 14 12.333 23.8311 23 29.498s19.667 8.16699 27 7.5h105c18 0 30.5 -2.5 37.5 -7.5s12.5 -14.833 16.5 -29.5l230 -643c0.666992 -1.33301 1 -3.66602 1 -6.99902s-1.16699 -6.16602 -3.5 -8.49902s-5.5 -3.5 -9.5 -3.5h-74
c-12.667 0 -21.5 1.5 -26.5 4.5s-8.5 7.83301 -10.5 14.5l-35 99h-217c-12 0 -20 3.83301 -24 11.5s-6 15.5 -6 23.5v43c0 20 10 30 30 30h178l-125 348c-2 5.33301 -5.66699 8 -11 8c-6 0 -10 -2.66699 -12 -8l-203 -555c-2 -12.667 -13 -19 -33 -19h-75
c-5.33301 0 -9.33301 1.83301 -12 5.5s-3 8.16699 -1 13.5z" />
    <glyph glyph-name="B" unicode="B" horiz-adv-x="698" 
d="M207 3l-11.0039 0.00195312h-1l-9 1l-83 3c-6.66699 0 -12.167 2.33301 -16.5 7s-6.5 10.667 -6.5 18v639c0 7.33301 2.33301 13.666 7 18.999s10.334 8.33301 17.001 9l91 9l11 1c22.667 1.33301 38.667 2 48 2c90 0 158.667 -20.333 206 -61
c17.333 -15.333 30.5 -31.5 39.5 -48.5s13.5 -25.333 13.5 -25s3 -14.834 9 -45.501c2 -36 -2.33301 -67.333 -13 -94c24.667 -12 45.334 -25.333 62.001 -40c20 -19.333 35.333 -40.333 46 -63c8.66699 -16.667 14.334 -32.167 17.001 -46.5s4 -24.5 4 -30.5
c2 -40.667 -2.33301 -76 -13 -106c-10 -29.333 -25.667 -54 -47 -74c-38 -36 -93.333 -59.333 -166 -70c-36.667 -4.66699 -75.667 -7 -117 -7c-31.333 0 -60.666 1 -87.999 3zM328.996 98.002c76.667 4.66699 131.999 21.3301 165.999 49.9971c24.667 20.667 37 47 37 79
l-1 13v1c0 4.66699 -0.833008 11.334 -2.5 20.001s-5.5 18.334 -11.5 29.001c-16 28 -42.667 47 -80 57c-18.667 -11.333 -41.667 -20.666 -69 -27.999l-6 -1c-5.33301 0 -10.166 1.66699 -14.499 5s-7.16602 7.66602 -8.49902 12.999l-15 61v4
c0 4 1.16699 7.83301 3.5 11.5s5.5 6.16699 9.5 7.5c15.333 4.66699 28.666 12 39.999 22c21.333 19.333 30.333 46.666 27 81.999v1c0 6 -1.66699 14.333 -5 25s-11 21.334 -23 32.001c-16 14 -36 23.333 -60 28c-16.667 4 -35.667 6 -57 6c-10 0 -29.667 -1.33301 -59 -4
v-199v-104v-206c8 -1.33301 20.5 -2.66602 37.5 -3.99902s35.833 -2 56.5 -2c15.333 0 27 0.333008 35 1z" />
    <glyph glyph-name="C" unicode="C" horiz-adv-x="706" 
d="M239.5 39.5c-55 32.333 -98.668 75.998 -131.001 130.998s-48.5 115.167 -48.5 180.5s16.167 125.5 48.5 180.5s76 98.667 131 131s114.833 48.5 179.5 48.5c34.667 0 68.334 -4.83301 101.001 -14.5s62.667 -23.5 90 -41.5
c4.66699 -2.66699 8.83398 -6.33398 12.501 -11.001s5.5 -10.334 5.5 -17.001c0 -9.33301 -4.33301 -18.666 -13 -27.999c-4.66699 -6 -12.334 -12.667 -23.001 -20s-22.667 -11 -36 -11c-10 0 -20 2 -30 6s-16 6.33301 -18 7c-26.667 11.333 -56.334 17 -89.001 17
c-45.333 0 -87.166 -11.167 -125.499 -33.5s-68.666 -52.5 -90.999 -90.5s-33.5 -79.667 -33.5 -125s11.167 -87.166 33.5 -125.499s52.666 -68.666 90.999 -90.999s80.166 -33.5 125.499 -33.5c48 0 90.667 12 128 36l23 14c2.66699 1.33301 6.83398 3.83301 12.501 7.5
s12.167 5.5 19.5 5.5s15.333 -4.33301 24 -13l32 -27c5.33301 -6.66699 8 -13 8 -19s-2.66699 -13.333 -8 -22c-34 -29.333 -71.5 -51.666 -112.5 -66.999s-83.167 -23 -126.5 -23c-64.667 0 -124.5 16.167 -179.5 48.5z" />
    <glyph glyph-name="D" unicode="D" horiz-adv-x="722" 
d="M279 -3.5c-6 4.33301 -10.3311 12.1689 -12.998 23.502c-0.666992 2.66699 -1 9 -1 19l1 32c0 4 2 9 6 15s12 9.33301 24 10c70 2 124.5 17.5 163.5 46.5s65.167 60 78.5 93s20.666 61.5 21.999 85.5c0.666992 8 1 19 1 33c0 98 -28 165.5 -84 202.5
s-121.333 55.5 -196 55.5c-21.333 0 -40.833 -1 -58.5 -3s-30.167 -4 -37.5 -6v-497v-88c0 -3.33301 -1.33301 -7.83301 -4 -13.5s-8 -8.83398 -16 -9.50098s-18.667 -1 -32 -1c-8 0 -14.5 0.166992 -19.5 0.5s-8.16699 0.5 -9.5 0.5c-16 0 -24 10 -24 30v644
c0 4 1.33301 7.83301 4 11.5s6 6.16699 10 7.5c4.66699 1.33301 15.334 3.66602 32.001 6.99902s38.667 6.5 66 9.5s56 4.5 86 4.5c108 0 200.667 -26.167 278 -78.5s116 -146.166 116 -281.499c0 -15.333 -0.333008 -27 -1 -35c0 -24.667 -6.33301 -59.5 -19 -104.5
s-46.834 -91.333 -102.501 -139s-139.834 -74.167 -252.501 -79.5c-6 -0.666992 -12 1.16602 -18 5.49902z" />
    <glyph glyph-name="E" unicode="E" horiz-adv-x="634" 
d="M86 4c-4 4 -6 8.66699 -6 14v664c0 5.33301 2 10 6 14s8.66699 6 14 6h442c6 0 11.167 -2 15.5 -6s6.5 -8.66699 6.5 -14v-70c0 -5.33301 -2.16699 -10 -6.5 -14s-9.5 -6 -15.5 -6h-352v-484h352c6 0 11.167 -2 15.5 -6s6.5 -8.66699 6.5 -14v-70
c0 -5.33301 -2.16699 -10 -6.5 -14s-9.5 -6 -15.5 -6h-442c-5.33301 0 -10 2 -14 6zM250.5 306c-3 3.33301 -4.5 7 -4.5 11v73c0 4.66699 1.5 8.5 4.5 11.5s6.5 4.5 10.5 4.5h260c4 0 7.33301 -1.5 10 -4.5s4 -6.83301 4 -11.5v-73c0 -4 -1.33301 -7.66699 -4 -11
s-6 -5 -10 -5h-260c-4 0 -7.5 1.66699 -10.5 5z" />
    <glyph glyph-name="F" unicode="F" horiz-adv-x="603" 
d="M80 680c0 6 2 11 6 15s9 6 15 6h441c6 0 11 -2 15 -6s6 -9 6 -15v-68c0 -6 -2 -11 -6 -15s-9 -6 -15 -6h-352v-573c0 -6 -2 -11 -6 -15s-8.66699 -6 -14 -6h-69c-6 0 -11 2 -15 6s-6 9 -6 15v662zM239 390c0 4.66699 1.5 8.5 4.5 11.5s6.5 4.5 10.5 4.5h260
c4 0 7.33301 -1.5 10 -4.5s4 -6.83301 4 -11.5v-73c0 -4 -1.33301 -7.66699 -4 -11s-6 -5 -10 -5h-260c-4 0 -7.5 1.66699 -10.5 5s-4.5 7 -4.5 11v73z" />
    <glyph glyph-name="G" unicode="G" horiz-adv-x="812" 
d="M238 46c-54.667 32 -98.001 75.168 -130.001 129.501s-48 113.833 -48 178.5s16 124.167 48 178.5s75.333 97.5 130 129.5s114.334 48 179.001 48c62.667 0 121 -15 175 -45s96.667 -70.667 128 -122c2.66699 -4.66699 4 -9 4 -13s-1.16699 -7.16699 -3.5 -9.5l-4.5 -4.5
l-67 -28c-0.666992 0 -1.66699 -0.166992 -3 -0.5s-3.33301 -0.5 -6 -0.5c-9.33301 0 -17.666 4.66699 -24.999 14c-22 31.333 -50.667 56.166 -86 74.499s-73.333 27.5 -114 27.5c-44 0 -85 -11 -123 -33s-68 -52 -90 -90s-33 -79.333 -33 -124
c0 -44 11.167 -84.833 33.5 -122.5s52.333 -67.5 90 -89.5s78.5 -33 122.5 -33c41.333 0 79.666 9.5 114.999 28.5s64.666 44.5 87.999 76.5h92c3.33301 0 6.16602 -1 8.49902 -3s3.5 -4.66699 3.5 -8v-194c0 -3.33301 -1.16699 -6 -3.5 -8s-5.16602 -3 -8.49902 -3h-85
c-3.33301 0 -6.16602 1 -8.49902 3s-3.5 4.66699 -3.5 8v49c-51.333 -41.333 -116.666 -62 -195.999 -62c-64.667 0 -124.334 16 -179.001 48zM394.999 272.001c-3.33301 3.33301 -5 7.33301 -5 12v73c0 4.66699 1.66699 8.83398 5 12.501s7.33301 5.5 12 5.5h322
c4.66699 0 8.66699 -1.83301 12 -5.5s5 -7.83398 5 -12.501v-73c0 -4.66699 -1.66699 -8.66699 -5 -12s-7.33301 -5 -12 -5h-322c-4.66699 0 -8.66699 1.66699 -12 5z" />
    <glyph glyph-name="H" unicode="H" horiz-adv-x="720" 
d="M80 679c0 6 2.16699 11 6.5 15s9.5 6 15.5 6h75c6.66699 0 12.167 -2 16.5 -6s6.5 -9 6.5 -15v-655c0 -6 -2.16699 -11 -6.5 -15s-9.83301 -6 -16.5 -6h-75c-6 0 -11.167 2 -15.5 6s-6.5 9 -6.5 15v655zM244 404c0 4.66699 1.66699 8.83301 5 12.5s7.33301 5.5 12 5.5
h260v257c0 6 2.16699 11 6.5 15s9.83301 6 16.5 6h74c6 0 11.167 -2 15.5 -6s6.5 -9 6.5 -15v-655c0 -6 -2.16699 -11 -6.5 -15s-9.5 -6 -15.5 -6h-74c-6.66699 0 -12.167 2 -16.5 6s-6.5 9 -6.5 15v283h-260c-4.66699 0 -8.66699 1.83301 -12 5.5s-5 8.5 -5 14.5v77z" />
    <glyph glyph-name="I" unicode="I" horiz-adv-x="317" 
d="M107.5 7.5c-5 5 -7.5 11.167 -7.5 18.5v648c0 7.33301 2.5 13.5 7.5 18.5s11.167 7.5 18.5 7.5h66c6.66699 0 12.5 -2.5 17.5 -7.5s7.5 -11.167 7.5 -18.5v-648c0 -7.33301 -2.5 -13.5 -7.5 -18.5s-10.833 -7.5 -17.5 -7.5h-66c-7.33301 0 -13.5 2.5 -18.5 7.5z" />
    <glyph glyph-name="J" unicode="J" horiz-adv-x="328" 
d="M92.5 -221.5c-5 4.33301 -7.50098 7.16797 -7.50098 8.50098l-39 57c-0.666992 0.666992 -1.83398 2.33398 -3.50098 5.00098s-2.5 6 -2.5 10c0 9.33301 5 17.666 15 24.999c26 21.333 43.333 44.166 52 68.499s13 43.833 13 58.5v672c0 6 2.33301 11.167 7 15.5
s9.66699 6.5 15 6.5h74c6 0 11.167 -2.16699 15.5 -6.5s6.5 -9.5 6.5 -15.5v-695v-2c-1.33301 -87.333 -36.666 -156 -105.999 -206c-7.33301 -5.33301 -14.666 -8 -21.999 -8c-6.66699 0 -12.5 2.16699 -17.5 6.5z" />
    <glyph glyph-name="K" unicode="K" horiz-adv-x="758" 
d="M80 680c0 6 2.16699 11 6.5 15s9.5 6 15.5 6h67c6 0 11.167 -2 15.5 -6s6.5 -9 6.5 -15v-470l309 474c3.33301 4.66699 8.33301 8.66699 15 12s13 5 19 5h94c9.33301 0 14 -3.33301 14 -10c0 -2.66699 -1 -5.66699 -3 -9l-444 -672l-7 -6l-5 -3l-4 -1l-10 -1h-67
c-6 0 -11.167 2.16699 -15.5 6.5s-6.5 9.5 -6.5 15.5v659zM437 280l45.998 64.999c3.33301 4.66699 7 7 11 7c5.33301 0 10 -3 14 -9l197 -325c2 -2.66699 3 -5.66699 3 -9c0 -2.66699 -1 -4.83398 -3 -6.50098s-4.66699 -2.5 -8 -2.5h-90
c-5.33301 0 -11.166 1.83301 -17.499 5.5s-11.166 7.83398 -14.499 12.501l-139 227c-2.66699 6.66699 -4 12.334 -4 17.001c0 6.66699 1.66699 12.667 5 18z" />
    <glyph glyph-name="L" unicode="L" horiz-adv-x="543" 
d="M86.5 8c-4.33301 4 -6.5 9 -6.5 15v658c0 6 2.16699 11 6.5 15s9.16602 6 14.499 6h69c5.33301 0 10 -2 14 -6s6 -9 6 -15v-569h307c4.66699 0 8.5 -1.5 11.5 -4.5s4.5 -6.83301 4.5 -11.5v-78c0 -4.66699 -1.5 -8.5 -4.5 -11.5s-6.83301 -4.5 -11.5 -4.5h-396
c-5.33301 0 -10.166 2 -14.499 6z" />
    <glyph glyph-name="M" unicode="M" horiz-adv-x="881" 
d="M774.5 694.5c4.33301 -4.33301 6.5 -9.16504 6.5 -14.498v-658c0 -6 -2.16699 -11 -6.5 -15s-9.16602 -6 -14.499 -6h-69c-6 0 -11.167 2.16699 -15.5 6.5s-6.5 9.16602 -6.5 14.499v402l-117 -245c-2 -4 -5.33301 -6 -10 -6s-8 2 -10 6l-47 99
c-1.33301 5.33301 -2 9 -2 11c0 2.66699 0.666992 6 2 10l186 388v2l1 1c2 5.33301 6.66699 8.66602 14 9.99902c1.33301 0.666992 3 1 5 1h69c5.33301 0 10.166 -2.16699 14.499 -6.5zM500 83.001c2.66699 -3.33301 2.66602 -7.00195 -0.000976562 -11.002v0
c-1.33301 -3.33301 -3.83301 -6.16602 -7.5 -8.49902s-7.5 -3.16602 -11.5 -2.49902v0h-80v0h-2v0c-4 0 -7.66699 1 -11 3s-5.66602 4.66699 -6.99902 8l-169 354v-404c0 -5.33301 -2.16699 -10.166 -6.5 -14.499s-9.5 -6.5 -15.5 -6.5h-69c-6 0 -11 2 -15 6s-6 9 -6 15v658
c0 5.33301 2 10.166 6 14.499s9 6.5 15 6.5h69h1c4 0 7.83301 -1 11.5 -3s6.16699 -4.66699 7.5 -8l231 -483v1z" />
    <glyph glyph-name="N" unicode="N" horiz-adv-x="839" 
d="M100 678c0 8 2.33301 14.333 7 19s11 7 19 7h68c6 0 11.667 -2.66699 17 -8s8 -11.333 8 -18v-657c0 -5.33301 -3 -11 -9 -17s-11.333 -9 -16 -9h-68c-6.66699 0 -12.667 2.66699 -18 8s-8 11.333 -8 18v657zM265 624c0 10 2.33203 17.168 6.99902 21.501
s10.667 6.5 18 6.5c4.66699 0 9.33398 -0.833008 14.001 -2.5s8 -3.83398 10 -6.50098l306 -310v345c0 8 2.33301 14.333 7 19s11 7 19 7h68c6 0 11.667 -2.66699 17 -8s8 -11.333 8 -18v-657c0 -5.33301 -3 -11 -9 -17s-11.333 -9 -16 -9h-68
c-6.66699 0 -12.667 2.66699 -18 8s-8 11.333 -8 18v146l-339 333c-4 4 -7.66699 10.333 -11 19s-5 15 -5 19v86z" />
    <glyph glyph-name="O" unicode="O" horiz-adv-x="843" 
d="M240.5 38.5c-55.667 32.333 -99.667 76.333 -132 132s-48.5 116.167 -48.5 181.5s16.167 125.666 48.5 180.999s76.333 99.166 132 131.499s116.167 48.5 181.5 48.5s125.666 -16.167 180.999 -48.5s99.166 -76.166 131.499 -131.499s48.5 -115.666 48.5 -180.999
s-16.167 -125.833 -48.5 -181.5s-76.166 -99.667 -131.499 -132s-115.666 -48.5 -180.999 -48.5s-125.833 16.167 -181.5 48.5zM545 138.5c38 22.333 68.167 52.666 90.5 90.999s33.5 79.833 33.5 124.5c0 45.333 -11.167 87.166 -33.5 125.499s-52.5 68.666 -90.5 90.999
s-79.667 33.5 -125 33.5s-87.166 -11.167 -125.499 -33.5s-68.666 -52.666 -90.999 -90.999s-33.5 -80.166 -33.5 -125.499c0 -44.667 11.167 -86.167 33.5 -124.5s52.666 -68.666 90.999 -90.999s80.166 -33.5 125.499 -33.5s87 11.167 125 33.5z" />
    <glyph glyph-name="P" unicode="P" horiz-adv-x="654" 
d="M86.5 5.5c-4.33301 4.33301 -6.49805 9.83105 -6.49805 16.498v644c0 5.33301 1.83301 10 5.5 14s8.16699 6.66699 13.5 8c0.666992 0 8.16699 1.5 22.5 4.5s35.5 5.83301 63.5 8.5s55.333 4 82 4c95.333 0 177 -19.667 245 -59s102 -109.666 102 -210.999
c0 -10.667 -0.333008 -19 -1 -25c0 -15.333 -6.33301 -40.5 -19 -75.5s-42.5 -70.333 -89.5 -106s-116.833 -55.5 -209.5 -59.5c-14.667 -0.666992 -23.5 2.16602 -26.5 8.49902s-4.5 12.5 -4.5 18.5v54c0 4 1.66699 9 5 15s10.333 9 21 9
c86 0.666992 140.5 18.834 163.5 54.501s34.5 66.834 34.5 93.501c0.666992 5.33301 1 12.666 1 21.999c0 61.333 -19.5 103.833 -58.5 127.5s-85.5 35.5 -139.5 35.5c-20.667 0 -39.334 -1.16699 -56.001 -3.5s-27.334 -4.16602 -32.001 -5.49902l1 1v-321h-1h1v-256
c0 -6.66699 -2.16699 -12.167 -6.5 -16.5s-9.83301 -6.5 -16.5 -6.5h-78c-6.66699 0 -12.167 2.16699 -16.5 6.5z" />
    <glyph glyph-name="Q" unicode="Q" horiz-adv-x="871" 
d="M237.5 40c-54.333 32.667 -97.502 76.666 -129.502 131.999s-48 115.333 -48 180c0 65.333 16.333 125.833 49 181.5s76.834 99.834 132.501 132.501s116.167 49 181.5 49s125.833 -16.333 181.5 -49s99.834 -76.834 132.501 -132.501s49 -116.167 49 -181.5
c0 -50 -9.66699 -97.333 -29 -142s-46.333 -83.667 -81 -117h127c5.33301 0 9.66602 -1.83301 12.999 -5.5s5 -8.16699 5 -13.5v-67c0 -5.33301 -1.66699 -9.66602 -5 -12.999s-7.66602 -5 -12.999 -5h-384h-3c-64.667 1.33301 -124.167 18.333 -178.5 51zM546.498 137.999
c38.333 22.667 68.666 53.167 90.999 91.5s33.5 80.166 33.5 125.499s-11.167 87.166 -33.5 125.499s-52.666 68.666 -90.999 90.999s-80.166 33.5 -125.499 33.5s-87.166 -11.167 -125.499 -33.5s-68.666 -52.666 -90.999 -90.999s-33.5 -80.166 -33.5 -125.499
s11.167 -87.166 33.5 -125.499s52.666 -68.833 90.999 -91.5s80.166 -34 125.499 -34s87.166 11.333 125.499 34z" />
    <glyph glyph-name="R" unicode="R" horiz-adv-x="673" 
d="M80 667c0 5.33301 1.82812 10 5.49512 14s8.16699 6.66699 13.5 8c28.667 4.66699 54.334 8.5 77.001 11.5s52.334 4.5 89.001 4.5c95.333 0 177.166 -19.667 245.499 -59s102.5 -110 102.5 -212c0 -10.667 -0.333008 -19 -1 -25c0 -7.33301 -2 -20.333 -6 -39
s-13.833 -41 -29.5 -67s-38.5 -49.333 -68.5 -70c38 -28 61.667 -63.167 71 -105.5s14 -77.833 14 -106.5c0 -6 -2.33301 -11 -7 -15s-10 -6 -16 -6h-64c-1.33301 0 -4.16602 0.166992 -8.49902 0.5s-8.66602 2.5 -12.999 6.5s-6.83301 10.667 -7.5 20
c-3.33301 58 -13.666 98.167 -30.999 120.5s-36 34.166 -56 35.499c-37.333 -8 -69.666 -12 -96.999 -12c-13.333 0 -21.5 2.83301 -24.5 8.5s-4.5 11.167 -4.5 16.5v55c0 4 1.5 9 4.5 15s9.5 9 19.5 9c86 0 141 18 165 54s36 67 36 93c0.666992 4.66699 1 11.334 1 20.001
c0 62.667 -19.833 106 -59.5 130s-87.167 36 -142.5 36c-20 0 -38.167 -1.16699 -54.5 -3.5l-31.5 -4.5v-578c0 -6 -2.16699 -11.167 -6.5 -15.5s-9.5 -6.5 -15.5 -6.5h-78c-6 0 -11.167 2.16699 -15.5 6.5s-6.5 9.5 -6.5 15.5v645z" />
    <glyph glyph-name="S" unicode="S" horiz-adv-x="647" 
d="M571 99c-16.667 -29.333 -41.0049 -54.3271 -73.0049 -74.9941c-20 -12 -44.667 -22 -74 -30s-63.666 -11.667 -102.999 -11h-12c-33.333 2 -66 7.66699 -98 17s-60.333 21.666 -85 36.999c-32.667 18 -56.334 39.333 -71.001 64c-4 5.33301 -6 10.666 -6 15.999
s1.33301 10.166 4 14.499s6.33398 7.83301 11.001 10.5c4 2.66699 11 7.66699 21 15s18.667 13 26 17c6.66699 4 13.334 5.66699 20.001 5c5.33301 -2.66699 10.333 -6.66699 15 -12c8.66699 -14.667 22 -27.334 40 -38.001c20.667 -12.667 44.334 -22.334 71.001 -29.001
s53.334 -10 80.001 -10c43.333 0 78.333 8.33301 105 25c15.333 9.33301 26.333 20.333 33 33s10 28.667 10 48c0 15.333 -3.33301 27.833 -10 37.5s-19.5 18.667 -38.5 27s-46.833 16.833 -83.5 25.5c-55.333 12.667 -103.333 27 -144 43
c-44.667 18 -78.167 43.333 -100.5 76s-33.5 68 -33.5 106c0 19.333 2.33301 36.333 7 51c12 42.667 37.667 78.834 77 108.501s88.333 44.5 147 44.5c7.33301 0 18.333 -0.666992 33 -2c60 -6 107.667 -21.167 143 -45.5s61.333 -52.833 78 -85.5
c3.33301 -6 6.66602 -13.333 9.99902 -22c1.33301 -2 2 -5.33301 2 -10s-1.33301 -9.16699 -4 -13.5s-6 -7.5 -10 -9.5l-52 -26c-5.33301 -3.33301 -13 -4.33301 -23 -3c-6.66699 4 -11 9 -13 15c-1.33301 4 -4.33301 10.667 -9 20c-14 24 -34 42.333 -60 55
s-57.333 19 -94 19c-29.333 0 -55.666 -6.33301 -78.999 -19c-20 -12.667 -32.667 -30 -38 -52c-2 -6.66699 -3 -14.334 -3 -23.001c0 -17.333 5.33301 -33.333 16 -48s27 -26.334 49 -35.001c30.667 -11.333 74.334 -24.333 131.001 -39c32 -7.33301 59 -14.833 81 -22.5
s41.333 -16.834 58 -27.501c49.333 -30 74 -78.333 74 -145c0 -35.333 -8.33301 -67.666 -25 -96.999z" />
    <glyph glyph-name="T" unicode="T" horiz-adv-x="601" 
d="M247 5.5c-3.33301 3.66699 -5 8.16699 -5 13.5v512c0 5.33301 1.66699 9.66602 5 12.999s7.66602 5 12.999 5h75c4.66699 0 8.83398 -1.66699 12.501 -5s5.5 -7.66602 5.5 -12.999v-512c0 -5.33301 -1.83301 -9.83301 -5.5 -13.5s-7.83398 -5.5 -12.501 -5.5h-75
c-5.33301 -0 -9.66602 1.83301 -12.999 5.5zM46 598c-4 4 -6 8.66699 -6 14v68c0 5.33301 2 10 6 14s9 6 15 6h480c5.33301 0 10 -2 14 -6s6 -8.66699 6 -14v-68c0 -5.33301 -2 -10 -6 -14s-8.66699 -6 -14 -6h-480c-6 0 -11 2 -15 6z" />
    <glyph glyph-name="U" unicode="U" horiz-adv-x="700" 
d="M630 245l0.00195312 -3c0 -48 -12.5 -92.333 -37.5 -133s-58.833 -73 -101.5 -97s-89.334 -36 -140.001 -36s-97.5 12 -140.5 36s-77 56.333 -102 97s-37.5 85 -37.5 133v4l-1 435c0 5.33301 2 9.83301 6 13.5s8.66699 5.5 14 5.5h81
c5.33301 0 9.83301 -1.83301 13.5 -5.5s5.5 -8.16699 5.5 -13.5v-221l2 -220c0 -26.667 7.16699 -51.5 21.5 -74.5s33.666 -41.333 57.999 -55s50.833 -20.5 79.5 -20.5s55.167 6.83301 79.5 20.5s43.666 32.334 57.999 56.001s21.5 49.167 21.5 76.5l1 218v214
c0 6.66699 1.83301 12.667 5.5 18s9.83398 7.66602 18.501 6.99902h75c5.33301 0 9.83301 -1.83301 13.5 -5.5s5.5 -8.16699 5.5 -13.5l1 -435v-1z" />
    <glyph glyph-name="V" unicode="V" horiz-adv-x="717" 
d="M699.5 695c5 -5.33301 7.5 -11.333 7.5 -18c0 -5.33301 -0.666992 -9 -2 -11l-296 -649c-2 -5.33301 -5.33301 -9.5 -10 -12.5s-10 -4.5 -16 -4.5h-49c-5.33301 0 -10.333 1.5 -15 4.5s-8 7.16699 -10 12.5l-296 646c-1.33301 2.66699 -2 6.66699 -2 12
c0 8 2.66699 14.667 8 20s12 8 20 8h65c6 0 11.333 -1.5 16 -4.5s8 -7.16699 10 -12.5l229 -483l225 483c2 5.33301 5.33301 9.5 10 12.5s9.66699 4.5 15 4.5h72c7.33301 0 13.5 -2.66699 18.5 -8z" />
    <glyph glyph-name="W" unicode="W" horiz-adv-x="1065" 
d="M11 672c0 8 2.66699 14.667 8 20s12 8 20 8h66c12 0 20.333 -5.66699 25 -17l229 -480l107 227l-105 227c-1.33301 2.66699 -2 6.66699 -2 12c0 8 2.66699 14.667 8 20s12 8 20 8h66c5.33301 0 10.333 -1.5 15 -4.5s8 -7.16699 10 -12.5l53 -110l67 -141l109 -229
l225 480c2 5.33301 5.33301 9.5 10 12.5s9.66699 4.5 15 4.5h72c7.33301 0 13.5 -2.66699 18.5 -8s7.5 -11.333 7.5 -18c0 -5.33301 -0.666992 -9 -2 -11l-296 -645c-2 -5.33301 -5.33301 -9.5 -10 -12.5s-10 -4.5 -16 -4.5h-49c-5.33301 0 -10.333 1.5 -15 4.5
s-8 7.16699 -10 12.5l-125 271l-123 -268c-2 -5.33301 -5.33301 -9.5 -10 -12.5s-10 -4.5 -16 -4.5h-49c-5.33301 0 -10.333 1.5 -15 4.5s-8 7.16699 -10 12.5l-296 642c-1.33301 2.66699 -2 6.66699 -2 12zM570 645c0 6.66699 1.33398 12.334 4.00098 17.001l10 21
c2 5.33301 5.33301 9.5 10 12.5s9.66699 4.5 15 4.5h72c7.33301 0 13.5 -2.66699 18.5 -8s7.5 -11.333 7.5 -18c0 -5.33301 -0.666992 -9 -2 -11l-62 -132c-2 -5.33301 -5.66699 -8 -11 -8c-4.66699 0 -8.33398 2.33301 -11.001 7l-47 96
c-2.66699 5.33301 -4 11.666 -4 18.999z" />
    <glyph glyph-name="X" unicode="X" horiz-adv-x="629" 
d="M430 439c-4 0 -7.66699 1.66895 -11 5.00195l-52 68c-2.66699 5.33301 -4 9.66602 -4 12.999c0 4 1.33301 8 4 12l105 149l1 2c2.66699 4 6.83398 7.33301 12.501 10s11.5 4 17.5 4h56h15c13.333 0 21.666 -2 24.999 -6c2 -2.66699 3 -5.33398 3 -8.00098
c0 -3.33301 -3.66699 -12 -11 -26c-0.666992 0 -1 -0.666992 -1 -2l-149 -216c-3.33301 -3.33301 -7 -5 -11 -5zM618 13.002c-5.33301 -6 -11.166 -9.66699 -17.499 -11s-15.5 -2 -27.5 -2h-52c-14.667 0 -26.667 6 -36 18l-170 256l-168 -256
c-2.66699 -5.33301 -7.33398 -9.66602 -14.001 -12.999s-13 -5 -19 -5h-60c-22.667 0 -36 2 -40 6c-2.66699 2 -4 5 -4 9c0 7.33301 4 17 12 29l214 332l-196 284c-0.666992 0 -1 0.333008 -1 1c-4.66699 8 -7 15 -7 21c0 2.66699 0.666992 5.33398 2 8.00098
c3.33301 5.33301 7.5 8.66602 12.5 9.99902s10 2 15 2h10.5h50c14.667 0 26 -5 34 -15l149 -208l10 -15l276 -390l20 -32c6.66699 -10.667 9 -20.334 7 -29.001z" />
    <glyph glyph-name="Y" unicode="Y" horiz-adv-x="604" 
d="M359 297c2.66699 -4.66699 4 -10.334 4 -17.001v-256c0 -7.33301 -2.5 -13.333 -7.5 -18s-11.167 -7 -18.5 -7h-71c-6.66699 0 -12.5 2.5 -17.5 7.5s-7.5 10.833 -7.5 17.5v265l-228 376c-2 3.33301 -3 7 -3 11c0 2 0.666992 5 2 9
c2.66699 4.66699 6.5 8.33398 11.5 11.001s10.5 4 16.5 4h54c28 0 47 -9 57 -27l1 -1l137 -227zM594 676c0 -4 -0.999023 -7.66797 -2.99902 -11.001l-179 -295c-2 -4.66699 -6 -7 -12 -7c-5.33301 0 -9 2.66699 -11 8l-46 95c-1.33301 4 -2 7.33301 -2 10
c0 4.66699 1 8.33398 3 11.001l108 185h0.5c0.333008 0 0.5 0.333008 0.5 1c10 18 29 27 57 27h54c13.333 0 22.666 -5 27.999 -15c1.33301 -4 2 -7 2 -9z" />
    <glyph glyph-name="Z" unicode="Z" horiz-adv-x="626" 
d="M580 106.5c4 -3.66699 6 -8.16895 6 -13.502v-72c0 -5.33301 -2 -9.83301 -6 -13.5s-8.66699 -5.5 -14 -5.5h-506c-6 0 -10.833 1.83301 -14.5 5.5s-5.5 8.16699 -5.5 13.5v72c0 8.66699 1 16 3 22l2 4l394 471l82 102c4 5.33301 9.66699 8 17 8h28
c5.33301 0 10 -1.83301 14 -5.5s6 -8.16699 6 -13.5v-50v-15c0.666992 -11.333 0.166992 -19.166 -1.5 -23.499s-6.5 -11.166 -14.5 -20.499l-384 -460h380c5.33301 0 10 -1.83301 14 -5.5zM51.5 597.498c-3.66699 3.66699 -5.49902 8.16602 -5.49902 13.499v72
c0 5.33301 2 9.83301 6 13.5s8.66699 5.5 14 5.5h344c5.33301 0 9.16602 -2.16699 11.499 -6.5s1.83301 -8.16602 -1.5 -11.499l-69 -84c-4 -5.33301 -9.66699 -8 -17 -8h-268c-6 0 -10.833 1.83301 -14.5 5.5z" />
    <glyph glyph-name="underscore" unicode="_" horiz-adv-x="515" 
d="M486.5 104.5c5.66699 -5.66699 8.5 -12.5 8.5 -20.5v-56c0 -7.33301 -2.83301 -13.833 -8.5 -19.5s-12.167 -8.5 -19.5 -8.5h-419c-8 -0 -14.667 2.83301 -20 8.5s-8 12.167 -8 19.5v56c0 8 2.66699 14.833 8 20.5s12 8.5 20 8.5h419
c7.33301 0 13.833 -2.83301 19.5 -8.5z" />
    <glyph glyph-name="a" unicode="a" horiz-adv-x="769" 
d="M280 669c8.66699 20 23.333 29.667 44 29h120c23.333 0 39 -11 47 -33l237 -645c0.666992 -1.33301 1 -3.33301 1 -6c0 -8.66699 -4.66699 -13 -14 -13h-76c-12.667 0 -21.5 1.5 -26.5 4.5s-8.5 7.83301 -10.5 14.5l-36 99h-364l-36 -99c-2 -12.667 -13.333 -19 -34 -19
h-77c-5.33301 0 -9.33301 1.83301 -12 5.5s-3 8.16699 -1 13.5zM526.999 227l-131 359c-2 6 -6 9 -12 9c-5.33301 0 -9 -2.66699 -11 -8l-131 -360h285z" />
    <glyph glyph-name="b" unicode="b" horiz-adv-x="696" 
d="M207 3l-22.002 0.998047l-82 3c-6.66699 0 -12.167 2.33301 -16.5 7s-6.5 10.667 -6.5 18v639c0 7.33301 2.33301 13.666 7 18.999s10.334 8.33301 17.001 9l91 9l11 1v0c22.667 1.33301 38.667 2 48 2c89.333 0 157.333 -20.333 204 -61
c24.667 -21.333 41.167 -43.666 49.5 -66.999s12.5 -40.666 12.5 -51.999c2 -36 -2.33301 -67.333 -13 -94c23.333 -10.667 44 -24 62 -40c20 -19.333 35.333 -40.333 46 -63c8.66699 -16.667 14.334 -32.167 17.001 -46.5s4 -24.5 4 -30.5c2 -40.667 -2.33301 -76 -13 -106
c-10 -29.333 -25.667 -54 -47 -74c-36.667 -35.333 -91.667 -58.666 -165 -69.999c-36.667 -4.66699 -75.667 -7 -117 -7c-32 0 -61 1 -87 3zM327.998 97.998c76.667 4.66699 131.998 21.332 165.998 49.999c27.333 23.333 39.333 54 36 92v1c0 4 -1 10.5 -3 19.5
s-6 18.833 -12 29.5c-16 28 -42.667 47 -80 57c-25.333 -16 -59.666 -27.667 -102.999 -35c-26.667 -3.33301 -52.334 -5 -77.001 -5c-11.333 0 -29.666 0.666992 -54.999 2v-206c8 -1.33301 20.333 -2.66602 37 -3.99902s35.334 -2 56.001 -2c15.333 0 27 0.333008 35 1z
M374.996 441.996c22 18.667 31.333 45.999 28 81.999v1c0 6 -1.83301 14.333 -5.5 25s-11.5 21.334 -23.5 32.001c-16 14 -36.667 23.333 -62 28c-17.333 4 -37 6 -59 6c-11.333 0 -31.666 -1.33301 -60.999 -4v-199c21.333 -2.66699 42.666 -4 63.999 -4
c55.333 0 95 11 119 33z" />
    <glyph glyph-name="c" unicode="c" horiz-adv-x="706" 
d="M239.5 39.5c-55 32.333 -98.668 75.998 -131.001 130.998s-48.5 115.167 -48.5 180.5s16.167 125.5 48.5 180.5s76 98.667 131 131s114.833 48.5 179.5 48.5c34.667 0 68.334 -4.83301 101.001 -14.5s62.667 -23.5 90 -41.5
c4.66699 -2.66699 8.83398 -6.33398 12.501 -11.001s5.5 -10.334 5.5 -17.001c0 -9.33301 -4.33301 -18.666 -13 -27.999c-4.66699 -6 -12.334 -12.667 -23.001 -20s-22.667 -11 -36 -11c-10 0 -20 2 -30 6s-16 6.33301 -18 7c-26.667 11.333 -56.334 17 -89.001 17
c-45.333 0 -87.166 -11.167 -125.499 -33.5s-68.666 -52.5 -90.999 -90.5s-33.5 -79.667 -33.5 -125s11.167 -87.166 33.5 -125.499s52.666 -68.666 90.999 -90.999s80.166 -33.5 125.499 -33.5c48 0 90.667 12 128 36l23 14c2.66699 1.33301 6.83398 3.83301 12.501 7.5
s12.167 5.5 19.5 5.5s15.333 -4.33301 24 -13l32 -27c5.33301 -6.66699 8 -13 8 -19s-2.66699 -13.333 -8 -22c-34 -29.333 -71.5 -51.666 -112.5 -66.999s-83.167 -23 -126.5 -23c-64.667 0 -124.5 16.167 -179.5 48.5z" />
    <glyph glyph-name="d" unicode="d" horiz-adv-x="722" 
d="M104 3h-3.00293c-6.66699 0 -12.167 2.16699 -16.5 6.5s-6.5 9.83301 -6.5 16.5v644c0 4 1.5 8 4.5 12s6.83301 7 11.5 9c4.66699 1.33301 15.334 3.66602 32.001 6.99902s38.667 6.5 66 9.5s56 4.5 86 4.5c108.667 0 201.834 -26.333 279.501 -79s116.5 -147 116.5 -283
c0 -15.333 -0.333008 -27 -1 -35c0 -26 -7 -62.667 -21 -110s-51.333 -95.166 -112 -143.499s-152.667 -72.5 -276 -72.5c-45.333 0 -98.666 4.66699 -159.999 14zM455.997 142c39.333 28.667 65.6689 59.5 79.002 92.5s21 62.167 23 87.5c0.666992 8 1 19 1 33
c0 97.333 -27.833 164.333 -83.5 201s-120.5 55 -194.5 55c-20.667 0 -39.834 -1 -57.501 -3s-29.834 -4 -36.501 -6v-493c35.333 -6.66699 69.333 -10 102 -10c72 0 127.667 14.333 167 43z" />
    <glyph glyph-name="e" unicode="e" horiz-adv-x="636" 
d="M86.5 3.5c-4.33301 4.33301 -6.5 9.83301 -6.5 16.5v660c0 6 2.16699 11.167 6.5 15.5s9.83301 6.5 16.5 6.5h439c6.66699 0 12.334 -2.16699 17.001 -6.5s7 -9.5 7 -15.5v-69c0 -6 -2.33301 -11.167 -7 -15.5s-10.334 -6.5 -17.001 -6.5h-348v-182h332
c5.33301 0 9.66602 -1.83301 12.999 -5.5s5 -8.5 5 -14.5v-69c0 -5.33301 -1.66699 -9.83301 -5 -13.5s-7.66602 -5.5 -12.999 -5.5h-332v-188h348c6.66699 0 12.334 -2.16699 17.001 -6.5s7 -9.83301 7 -16.5v-68c0 -6.66699 -2.33301 -12.167 -7 -16.5
s-10.334 -6.5 -17.001 -6.5h-439c-6.66699 0 -12.167 2.16699 -16.5 6.5z" />
    <glyph glyph-name="f" unicode="f" horiz-adv-x="607" 
d="M80 680c0 6 2.16699 11.333 6.5 16s9.83301 7 16.5 7h440c6.66699 0 12.334 -2.16699 17.001 -6.5s7 -9.83301 7 -16.5v-69c0 -6.66699 -2.33301 -12.167 -7 -16.5s-10.334 -6.5 -17.001 -6.5h-347v-179h316c5.33301 0 10 -2 14 -6s6 -8.66699 6 -14v-70
c0 -4.66699 -2 -9.16699 -6 -13.5s-8.66699 -6.5 -14 -6.5h-316v-279c0 -6 -2.16699 -11.333 -6.5 -16s-9.83301 -7 -16.5 -7h-70c-6 0 -11.333 2.16699 -16 6.5s-7 9.83301 -7 16.5v660z" />
    <glyph glyph-name="g" unicode="g" horiz-adv-x="812" 
d="M238 45c-54.667 32 -97.9951 75.332 -129.995 129.999s-48 114.334 -48 179.001s16 124.334 48 179.001s75.333 98 130 130s114.334 48 179.001 48c63.333 0 121.666 -15 174.999 -45s96 -70.667 128 -122c2.66699 -4.66699 4 -9 4 -13s-1.16699 -7.33301 -3.5 -10
s-3.83301 -4.33398 -4.5 -5.00098l-67 -27c-0.666992 0 -1.83398 -0.333008 -3.50098 -1s-3.83398 -1 -6.50098 -1c-9.33301 0 -17.333 5 -24 15c-22.667 30.667 -51.5 55.167 -86.5 73.5s-72.5 27.5 -112.5 27.5c-44.667 0 -86 -11 -124 -33s-68 -51.833 -90 -89.5
s-33 -78.834 -33 -123.501s11 -85.834 33 -123.501s52 -67.667 90 -90s79.333 -33.5 124 -33.5c39.333 0 76.166 9 110.499 27s63.166 42.333 86.499 73v53h-213c-4.66699 0 -8.66699 1.83301 -12 5.5s-5 7.83398 -5 12.501v74c0 4.66699 1.66699 8.66699 5 12
s7.33301 5 12 5h344c5.33301 0 9.66602 -1.66699 12.999 -5s5 -7.33301 5 -12v-74c0 -5.33301 -1.66699 -9.66602 -5 -12.999s-7.66602 -5 -12.999 -5h-22v-251c0 -3.33301 -1.33301 -6.33301 -4 -9s-6 -4 -10 -4h-82c-3.33301 0 -6.33301 1.33301 -9 4s-4 5.66699 -4 9v47
c-52.667 -41.333 -118 -62 -196 -62c-64.667 0 -124.334 16 -179.001 48z" />
    <glyph glyph-name="h" unicode="h" horiz-adv-x="719" 
d="M527.5 8c-5 5.33301 -7.5 11.666 -7.5 18.999v280h-321v-280c0 -7.33301 -2.5 -13.5 -7.5 -18.5s-11.167 -7.5 -18.5 -7.5h-66c-7.33301 0 -13.666 2.5 -18.999 7.5s-8 11.167 -8 18.5v647c0 7.33301 2.66699 13.666 8 18.999s11.666 8 18.999 8h66
c6.66699 0 12.667 -2.66699 18 -8s8 -11.666 8 -18.999v-252h321v250c0 7.33301 2.66699 13.833 8 19.5s11.333 8.5 18 8.5h67c7.33301 0 13.5 -2.5 18.5 -7.5s7.5 -11.167 7.5 -18.5v-647c0 -7.33301 -2.5 -13.666 -7.5 -18.999s-11.167 -8 -18.5 -8h-67
c-7.33301 0 -13.5 2.66699 -18.5 8z" />
    <glyph glyph-name="i" unicode="i" horiz-adv-x="319" 
d="M107.5 7.5c-5 5 -7.5 11.167 -7.5 18.5v653c0 7.33301 2.5 13.5 7.5 18.5s11.167 7.5 18.5 7.5h68c6.66699 0 12.5 -2.5 17.5 -7.5s7.5 -11.167 7.5 -18.5v-653c0 -7.33301 -2.5 -13.5 -7.5 -18.5s-10.833 -7.5 -17.5 -7.5h-68c-7.33301 0 -13.5 2.5 -18.5 7.5z" />
    <glyph glyph-name="j" unicode="j" horiz-adv-x="278" 
d="M42.5 -221.5c-5 4.33301 -7.50098 7.16797 -7.50098 8.50098l-39 57c-0.666992 0.666992 -1.83398 2.33398 -3.50098 5.00098s-2.5 6 -2.5 10c0 9.33301 5 17.666 15 24.999c26 21.333 43.333 44.166 52 68.499s13 43.833 13 58.5v672c0 6 2.33301 11.167 7 15.5
s9.66699 6.5 15 6.5h74c6 0 11.167 -2.16699 15.5 -6.5s6.5 -9.5 6.5 -15.5v-695v-2c-1.33301 -87.333 -36.666 -156 -105.999 -206c-7.33301 -5.33301 -14.666 -8 -21.999 -8c-6.66699 0 -12.5 2.16699 -17.5 6.5z" />
    <glyph glyph-name="k" unicode="k" horiz-adv-x="761" 
d="M80 678c0 15.333 7.00098 22.9971 21.001 22.9971h68c6.66699 0 12 -2 16 -6s6 -9.66699 6 -17v-465l309 473c6 6.66699 11.333 10.834 16 12.501s11.334 2.5 20.001 2.5h95c2.66699 0 5 -1 7 -3s3 -4.33301 3 -7s-1 -5 -3 -7l-175 -266l243 -397
c3.33301 -6.66699 5 -11 5 -13c0 -3.33301 -1.33301 -5.66602 -4 -6.99902s-5.33398 -2 -8.00098 -2h-95c-11.333 0 -21 6.66699 -29 20l-181 294l-197 -301l-10 -9c-5.33301 -2.66699 -11.333 -4 -18 -4h-68c-6.66699 0 -11.834 2.33301 -15.501 7
s-5.5 9.33398 -5.5 14.001v658z" />
    <glyph glyph-name="l" unicode="l" horiz-adv-x="573" 
d="M86.5 8c-4.33301 4 -6.5 9 -6.5 15v658c0 6 2.16699 11 6.5 15s9.16602 6 14.499 6h69c5.33301 0 10 -2 14 -6s6 -9 6 -15v-569h307c4.66699 0 8.5 -1.5 11.5 -4.5s4.5 -6.83301 4.5 -11.5v-78c0 -4.66699 -1.5 -8.5 -4.5 -11.5s-6.83301 -4.5 -11.5 -4.5h-396
c-5.33301 0 -10.166 2 -14.499 6z" />
    <glyph glyph-name="m" unicode="m" horiz-adv-x="881" 
d="M774.5 693.5c4.33301 -4.33301 6.49902 -9.16504 6.49902 -14.498v-658c0 -5.33301 -2.16699 -10.166 -6.5 -14.499s-9.16602 -6.5 -14.499 -6.5h-69c-6 0 -11.167 2.16699 -15.5 6.5s-6.5 9.16602 -6.5 14.499v403l-169 -353c-1.33301 -3.33301 -3.83301 -6 -7.5 -8
s-7.5 -3 -11.5 -3v0h-80v0h-2v0c-4 0 -7.66699 1 -11 3s-5.66602 4.66699 -6.99902 8l-169 354v-404c0 -5.33301 -2.16699 -10.166 -6.5 -14.499s-9.5 -6.5 -15.5 -6.5h-69c-5.33301 0 -10.166 2.16699 -14.499 6.5s-6.5 9.16602 -6.5 14.499v658
c0 5.33301 2.16699 10.166 6.5 14.499s9.16602 6.5 14.499 6.5h69h1c4 0 7.83301 -1 11.5 -3s6.16699 -4.66699 7.5 -8l231 -483l230 481v1l1 1c2 5.33301 6.66699 8.66602 14 9.99902c1.33301 0.666992 3 1 5 1h69c5.33301 0 10.166 -2.16699 14.499 -6.5z" />
    <glyph glyph-name="n" unicode="n" horiz-adv-x="833" 
d="M100 675c0 7.33301 2.5 13.333 7.5 18s10.833 7 17.5 7h68c6.66699 0 12.334 -2.33301 17.001 -7l1 -1l404 -403v386c0 7.33301 2.5 13.333 7.5 18s10.833 7 17.5 7h69c6.66699 0 12.334 -2.5 17.001 -7.5s7 -10.833 7 -17.5v-650c0 -6.66699 -2.33301 -12.5 -7 -17.5
s-10.334 -7.5 -17.001 -7.5h-69c-6.66699 0 -12.5 2.5 -17.5 7.5s-7.5 10.833 -7.5 17.5v100c-4 1.33301 -7.33301 3.33301 -10 6l-388 388v-494c0 -6.66699 -2.33301 -12.5 -7 -17.5s-10.334 -7.5 -17.001 -7.5h-68c-6.66699 0 -12.5 2.5 -17.5 7.5s-7.5 10.833 -7.5 17.5
v650z" />
    <glyph glyph-name="o" unicode="o" horiz-adv-x="835" 
d="M237.5 40.5c-55 32.333 -98.667 76 -131 131s-48.5 115.167 -48.5 180.5c0 64.667 16.167 124.5 48.5 179.5s76 98.667 131 131s115.167 48.5 180.5 48.5c64.667 0 124.5 -16.167 179.5 -48.5s98.667 -76 131 -131s48.5 -114.833 48.5 -179.5
c0 -65.333 -16.167 -125.5 -48.5 -180.5s-76 -98.667 -131 -131s-114.833 -48.5 -179.5 -48.5c-65.333 0 -125.5 16.167 -180.5 48.5zM539 142c37.333 22 67 51.833 89 89.5s33 78.5 33 122.5c0 44.667 -11 85.667 -33 123s-51.667 67 -89 89s-78.333 33 -123 33
s-85.834 -11 -123.501 -33s-67.5 -51.667 -89.5 -89s-33 -78.333 -33 -123c0 -44 11 -84.833 33 -122.5s51.833 -67.5 89.5 -89.5s78.834 -33 123.501 -33s85.667 11 123 33z" />
    <glyph glyph-name="p" unicode="p" horiz-adv-x="651" 
d="M86 6c-4 4 -6.00098 8.66699 -6.00098 14v646c0 11.333 6.33301 18.333 19 21c30 4.66699 55.833 8.5 77.5 11.5s50.834 4.5 87.501 4.5c95.333 0 177 -19.5 245 -58.5s102 -109.167 102 -210.5c0 -10.667 -0.333008 -19 -1 -25c0 -16.667 -6.66699 -43 -20 -79
s-45.5 -71.667 -96.5 -107s-126.5 -53 -226.5 -53c-20.667 0 -42.667 1 -66 3v-153c0 -5.33301 -2 -10 -6 -14s-9 -6 -15 -6h-80c-5.33301 0 -10 2 -14 6zM419.499 312c32.333 21.333 52.332 42.333 59.999 63s11.5 36.667 11.5 48c0.666992 4.66699 1 11.667 1 21
c0 60 -21.667 101.5 -65 124.5s-94.666 34.5 -153.999 34.5c-34.667 0 -63.667 -2.33301 -87 -7v-310c32 -4 60.667 -6 86 -6c66 0 115.167 10.667 147.5 32z" />
    <glyph glyph-name="q" unicode="q" horiz-adv-x="851" 
d="M237.5 40c-54.333 32.667 -97.502 76.666 -129.502 131.999s-48 115.333 -48 180c0 65.333 16.333 125.833 49 181.5s76.834 99.834 132.501 132.501s116.167 49 181.5 49s125.833 -16.333 181.5 -49s99.834 -76.834 132.501 -132.501s49 -116.167 49 -181.5
c0 -50 -9.66699 -97.333 -29 -142s-46.333 -83.667 -81 -117h127c5.33301 0 9.66602 -1.83301 12.999 -5.5s5 -8.16699 5 -13.5v-67c0 -5.33301 -1.66699 -9.66602 -5 -12.999s-7.66602 -5 -12.999 -5h-384h-3c-64.667 1.33301 -124.167 18.333 -178.5 51zM546.498 137.999
c38.333 22.667 68.666 53.167 90.999 91.5s33.5 80.166 33.5 125.499s-11.167 87.166 -33.5 125.499s-52.666 68.666 -90.999 90.999s-80.166 33.5 -125.499 33.5s-87.166 -11.167 -125.499 -33.5s-68.666 -52.666 -90.999 -90.999s-33.5 -80.166 -33.5 -125.499
s11.167 -87.166 33.5 -125.499s52.666 -68.833 90.999 -91.5s80.166 -34 125.499 -34s87.166 11.333 125.499 34z" />
    <glyph glyph-name="r" unicode="r" horiz-adv-x="671" 
d="M80 666c0 11.333 6.33008 18.3301 18.9971 20.9971c30 4.66699 55.833 8.5 77.5 11.5s50.834 4.5 87.501 4.5c95.333 0 177 -19.5 245 -58.5s102 -109.167 102 -210.5c0 -10.667 -0.333008 -19 -1 -25c0 -7.33301 -2.16699 -20.5 -6.5 -39.5s-14.333 -41.667 -30 -68
s-39.167 -50.166 -70.5 -71.499c39.333 -28 64 -63.167 74 -105.5s15 -77.5 15 -105.5c0 -4.66699 -2.33301 -8.66699 -7 -12s-9.66699 -5 -15 -5h-68h-8.5c-4.33301 0 -8.66602 1.83301 -12.999 5.5s-6.83301 9.5 -7.5 17.5
c-3.33301 56.667 -13.666 96.334 -30.999 119.001s-36 35.334 -56 38.001c-34 -8 -73.333 -12 -118 -12c-20.667 0 -43 1 -67 3v-153c0 -5.33301 -2 -10 -6 -14s-9 -6 -15 -6h-80c-5.33301 0 -10 2 -14 6s-6 8.66699 -6 14v646zM271.997 279.997
c66 0 115.166 10.667 147.499 32s52.333 42.333 60 63s11.5 36.667 11.5 48c0.666992 4.66699 1 11.667 1 21c0 60 -21.667 101.5 -65 124.5s-94.666 34.5 -153.999 34.5c-34.667 0 -63.667 -2.33301 -87 -7v-310c32 -4 60.667 -6 86 -6z" />
    <glyph glyph-name="s" unicode="s" horiz-adv-x="647" 
d="M572 99c-16.667 -29.333 -41.0049 -54.3271 -73.0049 -74.9941c-20 -12 -44.667 -22 -74 -30s-63.666 -11.667 -102.999 -11h-12c-33.333 2 -66 7.66699 -98 17s-60.333 21.666 -85 36.999c-32.667 18 -56.334 39.333 -71.001 64c-4 5.33301 -6 10.666 -6 15.999
s1.33301 10.166 4 14.499s6.33398 7.83301 11.001 10.5c4 2.66699 11 7.66699 21 15s18.667 13 26 17c6.66699 4 13.334 5.66699 20.001 5c5.33301 -2.66699 10.333 -6.66699 15 -12c8.66699 -14.667 22 -27.334 40 -38.001c20.667 -12.667 44.334 -22.334 71.001 -29.001
s53.334 -10 80.001 -10c43.333 0 78.333 8.33301 105 25c15.333 9.33301 26.333 20.333 33 33s10 28.667 10 48c0 15.333 -3.33301 27.833 -10 37.5s-19.5 18.667 -38.5 27s-46.833 16.833 -83.5 25.5c-55.333 12.667 -103.333 27 -144 43
c-44.667 18 -78.167 43.333 -100.5 76s-33.5 68 -33.5 106c0 19.333 2.33301 36.333 7 51c12 42.667 37.667 78.834 77 108.501s88.333 44.5 147 44.5c7.33301 0 18.333 -0.666992 33 -2c60 -6 107.667 -21.167 143 -45.5s61.333 -52.833 78 -85.5
c3.33301 -6 6.66602 -13.333 9.99902 -22c1.33301 -2 2 -5.33301 2 -10s-1.33301 -9.16699 -4 -13.5s-6 -7.5 -10 -9.5l-52 -26c-5.33301 -3.33301 -13 -4.33301 -23 -3c-6.66699 4 -11 9 -13 15c-1.33301 4 -4.33301 10.667 -9 20c-14 24 -34 42.333 -60 55
s-57.333 19 -94 19c-29.333 0 -55.666 -6.33301 -78.999 -19c-20 -12.667 -32.667 -30 -38 -52c-2 -6.66699 -3 -14.334 -3 -23.001c0 -17.333 5.33301 -33.333 16 -48s27 -26.334 49 -35.001c30.667 -11.333 74.334 -24.333 131.001 -39c32 -7.33301 59 -14.833 81 -22.5
s41.333 -16.834 58 -27.501c49.333 -30 74 -78.333 74 -145c0 -35.333 -8.33301 -67.666 -25 -96.999z" />
    <glyph glyph-name="t" unicode="t" horiz-adv-x="605" 
d="M248.5 5.5c-4.33301 4.33301 -6.50098 9.16504 -6.50098 14.498v573h-184c-4.66699 0 -8.83398 1.83301 -12.501 5.5s-5.5 8.16699 -5.5 13.5v74c0 4.66699 1.83301 8.83398 5.5 12.501s7.83398 5.5 12.501 5.5h487c5.33301 0 10 -1.66699 14 -5s6 -7.66602 6 -12.999
v-74c0 -5.33301 -2 -9.83301 -6 -13.5s-8.66699 -5.5 -14 -5.5h-189v-573c0 -6 -2.33301 -11 -7 -15s-10 -6 -16 -6h-70c-5.33301 0 -10.166 2.16699 -14.499 6.5z" />
    <glyph glyph-name="u" unicode="u" horiz-adv-x="700" 
d="M630 245l0.00195312 -3c0 -48 -12.5 -92.333 -37.5 -133s-58.833 -73 -101.5 -97s-89.334 -36 -140.001 -36s-97.5 12 -140.5 36s-77 56.333 -102 97s-37.5 85 -37.5 133v4l-1 435c0 5.33301 2 9.83301 6 13.5s8.66699 5.5 14 5.5h81
c5.33301 0 9.83301 -1.83301 13.5 -5.5s5.5 -8.16699 5.5 -13.5v-221l2 -220c0 -26.667 7.16699 -51.5 21.5 -74.5s33.666 -41.333 57.999 -55s50.833 -20.5 79.5 -20.5s55.167 6.83301 79.5 20.5s43.666 32.334 57.999 56.001s21.5 49.167 21.5 76.5l1 218v214
c0 6.66699 1.83301 12.667 5.5 18s9.83398 7.66602 18.501 6.99902h75c5.33301 0 9.83301 -1.83301 13.5 -5.5s5.5 -8.16699 5.5 -13.5l1 -435v-1z" />
    <glyph glyph-name="v" unicode="v" horiz-adv-x="777" 
d="M729.5 695c5 -5.33301 7.5 -11.333 7.5 -18c0 -5.33301 -0.666992 -9 -2 -11l-297 -649c-4.66699 -11.333 -13 -17 -25 -17h-49c-5.33301 0 -10.333 1.5 -15 4.5s-8 7.16699 -10 12.5l-296 646c-1.33301 2.66699 -2 6.66699 -2 12c0 8 2.66699 14.667 8 20s12 8 20 8h65
c6 0 11.333 -1.5 16 -4.5s8 -7.16699 10 -12.5l229 -483l224 483c2 5.33301 5.33301 9.5 10 12.5s9.66699 4.5 15 4.5h73c7.33301 0 13.5 -2.66699 18.5 -8z" />
    <glyph glyph-name="w" unicode="w" horiz-adv-x="1061" 
d="M10 672c0 8 2.66602 14.666 7.99902 19.999s12 8 20 8h65c6 0 11.333 -1.5 16 -4.5s8 -7.16699 10 -12.5l227 -480l107 231l-102 224c-1.33301 2.66699 -2 6.33398 -2 11.001c0 8 2.66699 14.667 8 20s12 8 20 8h65c6 0 11.333 -1.5 16 -4.5s8 -7.16699 10 -12.5l50 -106
l51 109c2 5.33301 5.33301 9.5 10 12.5s9.66699 4.5 15 4.5h72c7.33301 0 13.5 -2.66699 18.5 -8s7.5 -11.333 7.5 -18c0 -5.33301 -0.666992 -9 -2 -11l-105 -230l110 -233l223 480c2 5.33301 5.33301 9.5 10 12.5s9.66699 4.5 15 4.5h72c7.33301 0 13.5 -2.66699 18.5 -8
s7.5 -11.333 7.5 -18c0 -5.33301 -0.666992 -9 -2 -11l-295 -645c-2 -5.33301 -5.33301 -9.5 -10 -12.5s-9.66699 -4.5 -15 -4.5h-49c-5.33301 0 -10.333 1.5 -15 4.5s-8 7.16699 -10 12.5l-126 275l-124 -272c-4.66699 -11.333 -13 -17 -25 -17h-49
c-5.33301 0 -10.166 1.5 -14.499 4.5s-7.5 7.16699 -9.5 12.5l-295 642c-1.33301 2.66699 -2 6.66699 -2 12z" />
    <glyph glyph-name="x" unicode="x" horiz-adv-x="629" 
d="M619 14c-5.33301 -6 -11.335 -9.66699 -18.002 -11s-16 -2 -28 -2h-52c-15.333 0 -27 6 -35 18l-171 256l-167 -256c-3.33301 -5.33301 -8.16602 -9.66602 -14.499 -12.999s-12.833 -5 -19.5 -5h-60c-22.667 0 -36 2 -40 6c-2.66699 2 -4 5 -4 9c0 7.33301 4 17 12 29
l214 332l-196 284c-5.33301 7.33301 -8 14.666 -8 21.999c0 2.66699 0.666992 5.33398 2 8.00098c3.33301 5.33301 7.5 8.66602 12.5 9.99902s10 2 15 2h10.5h50c14.667 0 26 -5 34 -15l159 -223l157 223c2.66699 4.66699 6.83398 8.33398 12.501 11.001s11.834 4 18.501 4
h56h15c13.333 0 21.666 -2 24.999 -6c2.66699 -2.66699 4 -5.33398 4 -8.00098s-1.83301 -7.16699 -5.5 -13.5s-6.16699 -10.833 -7.5 -13.5l-195 -284l216 -335v0c7.33301 -9.33301 10 -19 8 -29z" />
    <glyph glyph-name="y" unicode="y" horiz-adv-x="604" 
d="M594 676c0 -4 -0.999023 -7.66797 -2.99902 -11.001l-228 -376v-265c0 -7.33301 -2.5 -13.333 -7.5 -18s-11.167 -7 -18.5 -7h-70c-7.33301 0 -13.5 2.5 -18.5 7.5s-7.5 10.833 -7.5 17.5v265l-228 376c-2 3.33301 -3 7 -3 11c0 2 0.666992 5 2 9
c2.66699 4.66699 6.5 8.33398 11.5 11.001s10.5 4 16.5 4h54c28 0 47 -9 57 -27l1 -1l152 -252l148 252h0.5c0.333008 0 0.5 0.333008 0.5 1c10 18 29 27 57 27h54c13.333 0 22.666 -5 27.999 -15c1.33301 -4 2 -7 2 -9z" />
    <glyph glyph-name="z" unicode="z" horiz-adv-x="651" 
d="M55.5 594.5c3.66699 -3.66699 8.16699 -5.49902 13.5 -5.49902h385l-396 -475c-3.33301 -4.66699 -5 -11.334 -5 -20.001v-6v-73c0 -5.33301 1.83301 -9.83301 5.5 -13.5s8.16699 -5.5 13.5 -5.5h509c5.33301 0 10 1.83301 14 5.5s6 8.16699 6 13.5v73
c0 5.33301 -2 9.83301 -6 13.5s-8.66699 5.5 -14 5.5h-383l387 464c8 10 12.833 17.167 14.5 21.5s2.16699 12.833 1.5 25.5v2v61c0 5.33301 -2 9.83301 -6 13.5s-8.66699 5.5 -14 5.5h-512c-5.33301 0 -9.83301 -1.83301 -13.5 -5.5s-5.5 -8.16699 -5.5 -13.5v-73
c0 -5.33301 1.83301 -9.83301 5.5 -13.5z" />
    <glyph glyph-name="exclamdown" unicode="&#xa1;" horiz-adv-x="214" 
d="M49 692.5c-4.66699 -5 -7 -11.167 -7 -18.5v-81c0 -6.66699 2.5 -12.5 7.5 -17.5s10.833 -7.5 17.5 -7.5h81c7.33301 0 13.5 2.33301 18.5 7s7.5 10.667 7.5 18v81c0 7.33301 -2.5 13.5 -7.5 18.5s-11.167 7.5 -18.5 7.5h-81c-7.33301 0 -13.333 -2.5 -18 -7.5zM149 0
h-86c-15.333 0 -23 7.66699 -23 23l10 470c0 7.33301 2.16699 13 6.5 17s9.83301 6 16.5 6l69 -1c7.33301 0 13 -2 17 -6s6 -9.66699 6 -17l7 -469c0 -15.333 -7.66699 -23 -23 -23z" />
    <glyph glyph-name="guillemotleft" unicode="&#xab;" horiz-adv-x="606" 
d="M288 215c0 -9.33301 -4 -17.002 -12 -23.002l-33 -22c-4 -3.33301 -9.66699 -5 -17 -5c-10.667 0 -18.667 3.66699 -24 11l-137 168c-3.33301 6.66699 -5 13.334 -5 20.001c0 8.66699 2.33301 15.334 7 20.001l134 166c5.33301 8 13.333 12 24 12
c7.33301 0 13.333 -1.66699 18 -5l32 -26c6 -4.66699 9 -11.667 9 -21c0 -6.66699 -2 -12.667 -6 -18l-101 -128l105 -133c4 -4.66699 6 -10 6 -16zM518 214.998c0 -9.33301 -4 -16.6689 -12 -22.002l-33 -23c-4 -3.33301 -9.66699 -5 -17 -5
c-10.667 0 -18.667 3.66699 -24 11l-137 168c-3.33301 6.66699 -5 13.334 -5 20.001c0 8.66699 2 15.334 6 20.001l135 166c5.33301 8 13.333 12 24 12c6.66699 0 12.667 -1.66699 18 -5l32 -26c6 -4.66699 9 -11.667 9 -21c0 -6.66699 -2 -12.667 -6 -18l-101 -128
l105 -133c4 -4.66699 6 -10 6 -16z" />
    <glyph glyph-name="plusminus" unicode="&#xb1;" horiz-adv-x="453" 
d="M64.5 509c3.66699 3.33301 7.83594 4.99902 12.5029 4.99902h297c5.33301 0 9.66602 -1.66699 12.999 -5s5 -7.66602 5 -12.999v-70c0 -5.33301 -1.83301 -9.83301 -5.5 -13.5s-7.83398 -5.5 -12.501 -5.5h-297c-4.66699 0 -8.83398 1.83301 -12.501 5.5
s-5.5 7.83398 -5.5 12.501v71c0 5.33301 1.83301 9.66602 5.5 12.999zM272.002 619.999c3.33301 -3.33301 4.99902 -7.66602 4.99902 -12.999v-297c0 -4.66699 -1.66699 -8.83398 -5 -12.501s-7.66602 -5.5 -12.999 -5.5h-70c-5.33301 0 -9.83301 1.83301 -13.5 5.5
s-5.5 7.83398 -5.5 12.501v297c0 5.33301 1.83301 9.66602 5.5 12.999s7.83398 5 12.501 5h71c5.33301 0 9.66602 -1.66699 12.999 -5zM65.501 206.999c3.66699 3.33301 7.83594 4.99902 12.5029 4.99902h297c5.33301 0 9.66602 -1.66699 12.999 -5s5 -7.66602 5 -12.999
v-70c0 -5.33301 -1.83301 -9.83301 -5.5 -13.5s-7.83398 -5.5 -12.501 -5.5h-297c-4.66699 0 -8.83398 1.83301 -12.501 5.5s-5.5 7.83398 -5.5 12.501v71c0 5.33301 1.83301 9.66602 5.5 12.999z" />
    <glyph glyph-name="paragraph" unicode="&#xb6;" horiz-adv-x="655" 
d="M555 25c0 -6.66699 -2.33301 -12.167 -7 -16.5s-10 -6.5 -16 -6.5h-64c-6.66699 0 -12.167 2.16699 -16.5 6.5s-6.5 9.83301 -6.5 16.5v653c0 6 2.16699 11.333 6.5 16s9.83301 7 16.5 7h64c6 0 11.333 -2.33301 16 -7s7 -10 7 -16v-653zM391 693
c4.66699 -4.66699 7 -9.99707 7 -15.9971v-653c0 -6.66699 -2.33301 -12.167 -7 -16.5s-10.334 -6.5 -17.001 -6.5h-66c-6 0 -11.333 2.16699 -16 6.5s-7 9.83301 -7 16.5v251c-40.667 0.666992 -78.167 10.667 -112.5 30s-61.666 45.166 -81.999 77.499
s-30.5 67.5 -30.5 105.5c0 37.333 10.167 72.166 30.5 104.499s47.666 58.166 81.999 77.499s71.833 29.333 112.5 30v0h2h2v0h85c6.66699 0 12.334 -2.33301 17.001 -7z" />
    <glyph glyph-name="guillemotright" unicode="&#xbb;" horiz-adv-x="606" 
d="M429 364l-101 128.002c-4 5.33301 -6 11.333 -6 18c0 9.33301 3 16.333 9 21l32 26c5.33301 3.33301 11.333 5 18 5c11.333 0 19.333 -4 24 -12l134 -166c4.66699 -4.66699 7 -11.334 7 -20.001c0 -6.66699 -1.66699 -13.334 -5 -20.001l-137 -168
c-5.33301 -7.33301 -13.333 -11 -24 -11c-7.33301 0 -13 1.66699 -17 5l-33 22c-8 6 -12 13.667 -12 23c0 6 2 11.333 6 16zM199 364.002l-101 128.003c-4 5.33301 -6 11.333 -6 18c0 9.33301 3 16.333 9 21l32 26c4.66699 3.33301 10.667 5 18 5c11.333 0 19.333 -4 24 -12
l135 -166c4 -4.66699 6 -11.334 6 -20.001c0 -6.66699 -1.66699 -13.334 -5 -20.001l-137 -168c-5.33301 -7.33301 -13.333 -11 -24 -11c-7.33301 0 -13 1.66699 -17 5l-33 23c-8 5.33301 -12 12.666 -12 21.999c0 6 2 11.333 6 16z" />
    <glyph glyph-name="questiondown" unicode="&#xbf;" horiz-adv-x="645" 
d="M260.5 706c-5 -4.66699 -7.5 -10.667 -7.5 -18v-78c0 -6.66699 2.5 -12.334 7.5 -17.001s10.833 -7 17.5 -7h81c7.33301 0 13.5 2.33301 18.5 7s7.5 10.334 7.5 17.001v78c0 7.33301 -2.5 13.333 -7.5 18s-11.167 7 -18.5 7h-81c-6.66699 0 -12.5 -2.33301 -17.5 -7z
M267.5 542c-3.66699 -4 -5.49609 -8.66797 -5.49609 -14.001c0 -22 -2.83301 -39.833 -8.5 -53.5s-12.834 -24.667 -21.501 -33s-22.334 -19.833 -41.001 -34.5c-18.667 -13.333 -34.667 -26.166 -48 -38.499s-25.333 -27.166 -36 -44.499
c-18.667 -27.333 -28 -58.666 -28 -93.999c0 -38.667 11 -76 33 -112c23.333 -38.667 55 -68.5 95 -89.5s83.667 -30.5 131 -28.5c86 4 152 40.333 198 109c18.667 25.333 31.334 51.666 38.001 78.999c0.666992 1.33301 1 3 1 5c0 4.66699 -1.33301 8.83398 -4 12.501
s-6.33398 5.83398 -11.001 6.50098l-77 13h-5c-5.33301 0 -10 -1.16699 -14 -3.5s-6.66699 -5.83301 -8 -10.5c-5.33301 -15.333 -12.666 -29.333 -21.999 -42c-24.667 -34.667 -58.334 -52 -101.001 -52c-30.667 -1.33301 -55.667 4.5 -75 17.5s-33.333 26.833 -42 41.5
c-11.333 18.667 -17 36.667 -17 54c0 12.667 3.33301 24 10 34c4.66699 7.33301 10.167 14 16.5 20s13.333 11.833 21 17.5s13.5 10.167 17.5 13.5c23.333 17.333 43.166 34.166 59.499 50.499s30.333 38.333 42 66s17.5 61.5 17.5 101.5
c-0.666992 5.33301 -2.83398 9.66602 -6.50098 12.999s-8.16699 4.66602 -13.5 3.99902l-82 -1c-5.33301 -0.666992 -9.83301 -3 -13.5 -7z" />
    <glyph glyph-name="endash" unicode="&#x2013;" horiz-adv-x="458" 
d="M83 407h292c15.333 0 23 -7.66699 23 -23v-63c0 -15.333 -7.66699 -23 -23 -23h-292c-15.333 0 -23 7.66699 -23 23v63c0 15.333 7.66699 23 23 23z" />
    <glyph glyph-name="emdash" unicode="&#x2014;" horiz-adv-x="634" 
d="M83 407h468c15.333 0 23 -7.66699 23 -23v-62c0 -15.333 -7.66699 -23 -23 -23h-468c-15.333 0 -23 7.66699 -23 23v62c0 15.333 7.66699 23 23 23z" />
    <glyph glyph-name="quoteleft" unicode="&#x2018;" horiz-adv-x="227" 
d="M138 480c4 3.33301 6.33105 7.66504 6.99805 12.998l32 182c1.33301 6.66699 -0.166992 12.667 -4.5 18s-10.166 8 -17.499 8h-50c-6 0 -11 -1.66699 -15 -5s-6.33301 -7.66602 -7 -12.999l-32 -181c-1.33301 -7.33301 0.333984 -13.666 5.00098 -18.999s10.667 -8 18 -8
h49c6 0 11 1.66699 15 5z" />
    <glyph glyph-name="quoteright" unicode="&#x2019;" horiz-adv-x="227" 
d="M138 480c4 3.33301 6.33105 7.66504 6.99805 12.998l32 182c1.33301 6.66699 -0.166992 12.667 -4.5 18s-10.166 8 -17.499 8h-50c-6 0 -11 -1.66699 -15 -5s-6.33301 -7.66602 -7 -12.999l-32 -181c-1.33301 -7.33301 0.333984 -13.666 5.00098 -18.999s10.667 -8 18 -8
h49c6 0 11 1.66699 15 5z" />
    <glyph glyph-name="quotesinglbase" unicode="&#x201a;" horiz-adv-x="391" 
d="M171 596v-4c-2.66699 -28 -10.667 -50 -24 -66s-28 -28 -44 -36c-5.33301 -1.33301 -9.33301 -2 -12 -2c-5.33301 0 -10 1 -14 3l-8 5c-2.66699 0.666992 -4 3 -4 7s1.66699 6.66699 5 8c27.333 12.667 41 32.667 41 60h-45c-8 0 -14.333 2.5 -19 7.5s-7 10.833 -7 17.5
v81c0 7.33301 2.33301 13.333 7 18s11 7 19 7h79c7.33301 0 13.5 -2.33301 18.5 -7s7.5 -10.667 7.5 -18v-81zM341 596v-4c-2.66699 -28 -10.667 -50 -24 -66s-28 -28 -44 -36c-5.33301 -1.33301 -9.33301 -2 -12 -2c-5.33301 0 -10 1 -14 3l-8 5
c-2.66699 0.666992 -4 3 -4 7s1.66699 6.66699 5 8c27.333 12.667 41 32.667 41 60h-45c-8 0 -14.333 2.5 -19 7.5s-7 10.833 -7 17.5v81c0 7.33301 2.33301 13.333 7 18s11 7 19 7h79c7.33301 0 13.5 -2.33301 18.5 -7s7.5 -10.667 7.5 -18v-81z" />
    <glyph glyph-name="quotedblleft" unicode="&#x201c;" horiz-adv-x="364" 
d="M138 480c4 3.33301 6.33105 7.66504 6.99805 12.998l32 182c1.33301 6.66699 -0.166992 12.667 -4.5 18s-10.166 8 -17.499 8h-50c-6 0 -11 -1.66699 -15 -5s-6.33301 -7.66602 -7 -12.999l-32 -181c-1.33301 -7.33301 0.333984 -13.666 5.00098 -18.999s10.667 -8 18 -8
h49c6 0 11 1.66699 15 5zM273.998 479.999c4.66699 3.33301 7.33496 7.66504 8.00195 12.998l32 182c1.33301 6.66699 -0.333984 12.667 -5.00098 18s-10.667 8 -18 8h-49c-5.33301 0 -10.333 -1.66699 -15 -5s-7.33398 -7.66602 -8.00098 -12.999l-32 -181
c-1.33301 -7.33301 0.5 -13.666 5.5 -18.999s10.833 -8 17.5 -8h49c5.33301 0 10.333 1.66699 15 5z" />
    <glyph glyph-name="quotedblright" unicode="&#x201d;" horiz-adv-x="364" 
d="M138 480c4 3.33301 6.33105 7.66504 6.99805 12.998l32 182c1.33301 6.66699 -0.166992 12.667 -4.5 18s-10.166 8 -17.499 8h-50c-6 0 -11 -1.66699 -15 -5s-6.33301 -7.66602 -7 -12.999l-32 -181c-1.33301 -7.33301 0.333984 -13.666 5.00098 -18.999s10.667 -8 18 -8
h49c6 0 11 1.66699 15 5zM273.998 479.999c4.66699 3.33301 7.33496 7.66504 8.00195 12.998l32 182c1.33301 6.66699 -0.333984 12.667 -5.00098 18s-10.667 8 -18 8h-49c-5.33301 0 -10.333 -1.66699 -15 -5s-7.33398 -7.66602 -8.00098 -12.999l-32 -181
c-1.33301 -7.33301 0.5 -13.666 5.5 -18.999s10.833 -8 17.5 -8h49c5.33301 0 10.333 1.66699 15 5z" />
    <glyph glyph-name="quotedblbase" unicode="&#x201e;" horiz-adv-x="400" 
d="M229 105v4c2.66699 28 10.667 50 24 66s28 28 44 36c5.33301 1.33301 9.33301 2 12 2c5.33301 0 10 -1 14 -3l8 -5c2.66699 -0.666992 4 -3 4 -7s-1.66699 -6.66699 -5 -8c-27.333 -12.667 -41 -32.667 -41 -60h45c8 0 14.333 -2.5 19 -7.5s7 -10.833 7 -17.5v-81
c0 -7.33301 -2.33301 -13.333 -7 -18s-11 -7 -19 -7h-79c-7.33301 0 -13.5 2.33301 -18.5 7s-7.5 10.667 -7.5 18v81zM50 105v4c2.66699 28 10.667 50 24 66s28 28 44 36c5.33301 1.33301 9.33301 2 12 2c5.33301 0 10 -1 14 -3l8 -5c2.66699 -0.666992 4 -3 4 -7
s-1.66699 -6.66699 -5 -8c-27.333 -12.667 -41 -32.667 -41 -60h45c8 0 14.333 -2.5 19 -7.5s7 -10.833 7 -17.5v-81c0 -7.33301 -2.33301 -13.333 -7 -18s-11 -7 -19 -7h-79c-7.33301 0 -13.5 2.33301 -18.5 7s-7.5 10.667 -7.5 18v81z" />
    <glyph glyph-name="perthousand" unicode="&#x2030;" horiz-adv-x="1450" 
d="M290 5.5c-3.33301 3 -5.00293 6.83301 -5.00293 11.5c0 3.33301 1 7 3 11l327 650c3.33301 6 8.33301 11.333 15 16s13.334 7 20.001 7h82c11.333 0 17 -5 17 -15c0 -4 -1 -8 -3 -12l-327 -650c-3.33301 -6 -8.16602 -11.333 -14.499 -16s-12.833 -7 -19.5 -7h-82
c-5.33301 0 -9.66602 1.5 -12.999 4.5zM303.497 475c16.333 16 24.5 35.333 24.5 58s-8.16699 42 -24.5 58s-35.833 24 -58.5 24s-42 -8 -58 -24s-24 -35.333 -24 -58s8 -42 24 -58s35.333 -24 58 -24s42.167 8 58.5 24zM162.997 383.5c-26 15 -46.5 35.5 -61.5 61.5
s-22.5 54.667 -22.5 86c0 30.667 7.5 58.834 22.5 84.501s35.5 46.167 61.5 61.5s54.667 23 86 23c30.667 0 58.834 -7.66699 84.501 -23s46.167 -35.833 61.5 -61.5s23 -53.834 23 -84.501c0 -31.333 -7.66699 -60 -23 -86s-35.833 -46.5 -61.5 -61.5
s-53.834 -22.5 -84.501 -22.5c-31.333 0 -60 7.5 -86 22.5zM844.497 115c16.333 16 24.5 35.333 24.5 58s-8.16699 42 -24.5 58s-35.833 24 -58.5 24s-42 -8 -58 -24s-24 -35.333 -24 -58s8 -42 24 -58s35.333 -24 58 -24s42.167 8 58.5 24zM703.997 23.5
c-26 15 -46.5 35.5 -61.5 61.5s-22.5 54.667 -22.5 86c0 30.667 7.5 58.834 22.5 84.501s35.5 46.167 61.5 61.5s54.667 23 86 23c30.667 0 58.834 -7.66699 84.501 -23s46.167 -35.833 61.5 -61.5s23 -53.834 23 -84.501c0 -31.333 -7.66699 -60 -23 -86
s-35.833 -46.5 -61.5 -61.5s-53.834 -22.5 -84.501 -22.5c-31.333 0 -60 7.5 -86 22.5zM1255.5 108c16.333 16 24.5 35.333 24.5 58s-8.16699 42 -24.5 58s-35.833 24 -58.5 24s-42 -8 -58 -24s-24 -35.333 -24 -58s8 -42 24 -58s35.333 -24 58 -24s42.167 8 58.5 24z
M1115 16.5c-26 15 -46.5 35.5 -61.5 61.5s-22.5 54.667 -22.5 86c0 30.667 7.5 58.834 22.5 84.501s35.5 46.167 61.5 61.5s54.667 23 86 23c30.667 0 58.834 -7.66699 84.501 -23s46.167 -35.833 61.5 -61.5s23 -53.834 23 -84.501c0 -31.333 -7.66699 -60 -23 -86
s-35.833 -46.5 -61.5 -61.5s-53.834 -22.5 -84.501 -22.5c-31.333 0 -60 7.5 -86 22.5z" />
    <glyph glyph-name="guilsinglleft" unicode="&#x2039;" horiz-adv-x="376" 
d="M288 215c0 -9.33301 -4 -17.002 -12 -23.002l-33 -22c-4 -3.33301 -9.66699 -5 -17 -5c-10.667 0 -18.667 3.66699 -24 11l-137 168c-3.33301 6.66699 -5 13.334 -5 20.001c0 8.66699 2.33301 15.334 7 20.001l134 166c5.33301 8 13.333 12 24 12
c7.33301 0 13.333 -1.66699 18 -5l32 -26c6 -4.66699 9 -11.667 9 -21c0 -6.66699 -2 -12.667 -6 -18l-101 -128l105 -133c4 -4.66699 6 -10 6 -16z" />
    <glyph glyph-name="guilsinglright" unicode="&#x203a;" horiz-adv-x="376" 
d="M199 364l-101 128.002c-4 5.33301 -6 11.333 -6 18c0 9.33301 3 16.333 9 21l32 26c4.66699 3.33301 10.667 5 18 5c11.333 0 19.333 -4 24 -12l134 -166c4.66699 -4.66699 7 -11.334 7 -20.001c0 -6.66699 -1.66699 -13.334 -5 -20.001l-137 -168
c-5.33301 -7.33301 -13.333 -11 -24 -11c-7.33301 0 -13 1.66699 -17 5l-33 22c-8 6 -12 13.667 -12 23c0 6 2 11.333 6 16z" />
    <glyph glyph-name="Euro" unicode="&#x20ac;" 
d="M239.5 39.5c-55 32.333 -98.668 75.998 -131.001 130.998s-48.5 115.167 -48.5 180.5s16.167 125.5 48.5 180.5s76 98.667 131 131s114.833 48.5 179.5 48.5c34.667 0 68.334 -4.83301 101.001 -14.5s62.667 -23.5 90 -41.5
c4.66699 -2.66699 8.83398 -6.33398 12.501 -11.001s5.5 -10.334 5.5 -17.001c0 -9.33301 -4.33301 -18.666 -13 -27.999c-4.66699 -6 -12.334 -12.667 -23.001 -20s-22.667 -11 -36 -11c-10 0 -20 2 -30 6s-16 6.33301 -18 7c-26.667 11.333 -56.334 17 -89.001 17
c-45.333 0 -87.166 -11.167 -125.499 -33.5s-68.666 -52.5 -90.999 -90.5s-33.5 -79.667 -33.5 -125s11.167 -87.166 33.5 -125.499s52.666 -68.666 90.999 -90.999s80.166 -33.5 125.499 -33.5c48 0 90.667 12 128 36l23 14c2.66699 1.33301 6.83398 3.83301 12.501 7.5
s12.167 5.5 19.5 5.5s15.333 -4.33301 24 -13l32 -27c5.33301 -6.66699 8 -13 8 -19s-2.66699 -13.333 -8 -22c-34 -29.333 -71.5 -51.666 -112.5 -66.999s-83.167 -23 -126.5 -23c-64.667 0 -124.5 16.167 -179.5 48.5zM-0.000976562 489.998h407
c15.333 0 23 -7.66699 23 -23v-53c0 -15.333 -7.66699 -23 -23 -23h-407c-15.333 0 -23 7.66699 -23 23v53c0 15.333 7.66699 23 23 23zM0.999023 322.998h407c15.333 0 23 -7.66699 23 -23v-53c0 -15.333 -7.66699 -23 -23 -23h-407c-15.333 0 -23 7.66699 -23 23v53
c0 15.333 7.66699 23 23 23z" />
    <glyph glyph-name="approxequal" unicode="&#x2248;" 
 />
    <glyph glyph-name="lessequal" unicode="&#x2264;" horiz-adv-x="589" 
d="M152 327c6 0 11.333 3 16 9v0l262 280c3.33301 4 5 9 5 15s-2 11 -6 15s-9 6 -15 6h-82c-16 0 -28.667 -5.66699 -38 -17l1 1l-191 -204c-8 -8.66699 -12 -19.334 -12 -32.001c0 -11.333 4 -21.666 12 -30.999l34 -34v-1c4 -4.66699 8.66699 -7 14 -7zM93 402
c0 -12 3.33301 -22.334 10 -31.001l192 -205c10.667 -10.667 23 -16 37 -16h72c7.33301 0 13.5 2.83301 18.5 8.5s7.5 12.167 7.5 19.5c0 6.66699 -2.33301 12.334 -7 17.001l-272 288l-47 -51c-7.33301 -7.33301 -11 -17.333 -11 -30zM509 0.999023
c0 -7.33301 -2.5 -13.5 -7.5 -18.5s-11.167 -7.5 -18.5 -7.5h-377c-6.66699 0 -12.667 2.5 -18 7.5s-8 11.167 -8 18.5v53c0 7.33301 2.66699 13.5 8 18.5s11.333 7.5 18 7.5h377c7.33301 0 13.5 -2.66699 18.5 -8s7.5 -11.333 7.5 -18v-53z" />
    <glyph glyph-name="greaterequal" unicode="&#x2265;" horiz-adv-x="589" 
d="M451 335l34 34c8 9.33301 12 19.666 12 30.999c0 12.667 -4 23.334 -12 32.001l-191 204l1 -1c-9.33301 11.333 -22 17 -38 17h-82c-6 0 -11 -2 -15 -6s-6 -9 -6 -15s1.66699 -11 5 -15l262 -280v0c4.66699 -6 10 -9 16 -9c5.33301 0 10 2.33301 14 7v1zM438 483
l-272 -287.999c-4.66699 -4.66699 -7 -10.334 -7 -17.001c0 -7.33301 2.5 -13.833 7.5 -19.5s11.167 -8.5 18.5 -8.5h72c14 0 26.333 5.33301 37 16l192 205c6.66699 8.66699 10 19 10 31c0 12.667 -3.66699 22.667 -11 30zM87.5 72.001c5 5.33301 11.167 8 18.5 8h377
c7.33301 0 13.5 -2.5 18.5 -7.5s7.5 -11.167 7.5 -18.5v-53c0 -7.33301 -2.5 -13.5 -7.5 -18.5s-11.167 -7.5 -18.5 -7.5h-377c-7.33301 0 -13.5 2.5 -18.5 7.5s-7.5 11.167 -7.5 18.5v53c0 6.66699 2.5 12.667 7.5 18z" />
    </font>
</defs>
</svg>
